<svg width="118" height="118" viewBox="0 0 118 118" fill="none" xmlns="http://www.w3.org/2000/svg">
<g id="g231">
<g id="g1397">
<g id="g1441">
<g id="g1338">
<g id="g3838">
<path id="path3838" d="M55.8738 84.3231C50.4579 79.1682 45.0879 75.7589 39.5733 73.9742C35.9542 72.8029 32.632 72.3093 28.3646 72.3086C25.1355 72.308 22.015 72.5926 18.5668 73.2021L17.695 73.3561L17.7373 73.1686C17.7606 73.0655 19.7783 65.5031 22.2211 56.3633L26.6626 39.7455L29.8644 37.6723C31.6253 36.532 33.6406 35.2494 34.3426 34.8221C40.6471 30.9848 44.6168 29.7006 47.2815 30.6362C47.8605 30.8396 48.1531 30.9983 48.6117 31.358C49.3372 31.927 50.0539 32.9078 50.4094 33.818C50.5028 34.0571 50.4474 34.0153 50.1666 33.6349C48.4699 31.3359 45.9323 30.6678 42.536 31.6259C41.6125 31.8864 40.5771 32.3064 39.1645 32.9936C36.9572 34.0674 34.6424 35.4764 30.0019 38.571L27.4828 40.2509L23.6833 55.2389C21.5936 63.4823 19.8833 70.3123 19.8826 70.4168C19.8811 70.661 19.8614 70.6644 21.7155 70.1006C24.9006 69.132 27.9925 68.5006 31.2264 68.1582C32.8085 67.9907 37.1562 67.9895 38.5513 68.1561C45.2789 68.9597 49.9625 71.502 52.994 75.9956C53.5618 76.8373 54.3873 78.4221 54.757 79.3802C54.9611 79.9089 55.04 80.0434 55.1461 80.0434C55.2668 80.0434 55.8206 78.0962 55.862 77.4647C57.7159 76.1814 56.6868 81.2635 59.1265 80.1007C59.1697 80.1428 59.5807 79.984 60.3023 79.6462C65.4541 77.2344 70.8023 75.9196 77.8669 75.3281C79.5812 75.1845 84.8047 75.1273 86.8445 75.2297C89.4725 75.3616 91.9354 75.5948 94.2882 75.9345C95.701 76.1385 95.651 76.1392 95.651 75.9157C95.651 75.6906 86.731 40.4066 86.6487 40.3061C86.6152 40.2652 86.2221 40.213 85.7541 40.1874C83.9805 40.0902 82.5604 39.813 80.6265 39.1865C79.0956 38.6905 77.8197 38.1705 75.0051 36.8957C71.4498 35.2853 70.0976 34.7706 68.532 34.4317C67.5452 34.218 65.7526 34.2161 65.0239 34.4278C64.7621 34.5039 64.5352 34.5538 64.5197 34.5387C64.4706 34.4909 65.347 34.1205 65.7724 34.0092C66.4266 33.8382 67.4948 33.8109 68.3617 33.9432C69.866 34.1727 71.3945 34.7187 75.1074 36.3529C80.5151 38.733 83.1576 39.5267 86.4602 39.763L87.5242 39.8391L88.3902 43.0938C88.8665 44.884 90.8809 52.4972 92.8667 60.0123C94.8525 67.5273 96.7819 74.8169 97.1543 76.2113C97.5267 77.6058 97.8314 78.7746 97.8314 78.8087C97.8314 78.8917 97.3252 78.9248 93.0958 79.1179C89.0874 79.3009 87.1316 79.4174 84.7489 79.6151C75.9278 80.3471 68.1406 81.9107 59.64 84.6569C58.2909 85.0928 57.1564 85.448 57.1189 85.4464C57.0814 85.4447 56.5211 84.9392 55.8738 84.3231Z" fill="#B82236"/>
<path id="path24030-7-3" d="M55.692 77.7374C55.4907 77.1948 55.867 75.6469 56.3025 74.9985C56.6875 74.4251 57.0489 73.5306 57.1729 72.8436C57.2022 72.6811 57.4318 72.1704 57.6831 71.7087C58.1899 70.7774 58.2862 69.794 57.8705 69.794C57.7223 69.794 57.601 69.5579 57.601 69.2694C57.601 68.8156 57.7806 68.7448 58.933 68.7448C59.9084 68.7448 60.3593 68.6178 60.6171 68.2706C60.8108 68.0098 61.5343 67.4212 62.2249 66.9627C63.1938 66.3195 63.4481 66.0083 63.3385 65.6003C63.1904 65.0489 63.8452 64.0665 65.5695 62.253C66.084 61.7119 66.8109 60.62 67.1848 59.8266C67.5587 59.0331 68.0485 58.0583 68.2733 57.6604C68.498 57.2625 68.6571 56.7313 68.6269 56.4801C68.5429 55.7819 68.9591 53.8 69.2231 53.6412C69.6228 53.4007 69.4818 52.0414 68.9002 50.5281C68.5938 49.7311 68.4248 48.9504 68.5246 48.7932C68.6244 48.636 68.4432 48.2691 68.122 47.9777C67.35 47.2776 67.032 46.4059 67.032 44.9895C67.032 43.6691 66.5022 43.4413 65.4184 44.2956C64.1773 45.2739 64.8073 50.6189 66.1423 50.4368C66.4572 50.3938 66.7934 50.4823 66.8893 50.6335C66.9936 50.7977 66.7864 50.9083 66.3743 50.9083C65.7706 50.9083 65.6847 51.0187 65.6847 51.7943C65.6847 52.2815 65.4973 52.8316 65.2683 53.0167C65.0392 53.2017 64.9167 53.5176 64.996 53.7187C65.1371 54.0767 63.9401 56.679 63.6344 56.679C63.5491 56.679 63.1886 56.4564 62.8333 56.1843C62.1598 55.6686 62.2798 55.3864 63.327 55.023C64.0028 54.7884 63.3109 50.5145 62.4234 49.4415C62.2931 49.284 62.2662 49.0774 62.3638 48.9825C62.4613 48.8876 62.248 48.8009 61.8899 48.7899C61.5317 48.7788 60.9962 48.7103 60.6998 48.6375C60.0611 48.4807 58.3979 48.3461 55.9843 48.2558C53.7977 48.1739 51.4319 47.1791 51.9576 46.5626C52.1613 46.3237 52.3962 46.2689 52.5844 46.4163C53.0004 46.7422 54.9493 47.0318 57.1968 47.1017C58.2342 47.1339 59.5074 47.2432 60.0261 47.3446C60.5448 47.4459 61.1511 47.5559 61.3734 47.589C62.6735 47.7825 63.556 48.4506 63.8524 49.4657C64.021 50.0427 64.2752 50.6329 64.4173 50.7772C64.8367 51.2028 64.3784 48.8523 63.9047 48.1486C63.6736 47.8052 63.5335 47.3118 63.5935 47.0523C64.0728 44.9784 62.4616 44.1743 58.9892 44.7544C55.4892 45.3391 52.5356 45.3815 52.1913 44.852C51.7168 44.1223 51.9082 43.7618 52.7093 43.8762C53.6019 44.0037 53.6754 43.0693 52.8673 41.8688C52.359 41.1136 52.5803 40.5906 53.3124 40.8167C53.5963 40.9045 53.8382 40.8798 53.8498 40.7618C54.0453 38.7874 53.9746 38.1977 53.4854 37.7215C52.9315 37.1823 53.3405 36.5316 53.9543 36.9755C54.4875 37.361 56.5504 37.8202 57.0525 37.6651C57.3305 37.5792 57.8401 37.456 58.1849 37.3914C58.5297 37.3268 58.8526 37.1547 58.9025 37.009C59.0917 36.4563 59.5042 36.7851 60.0564 37.9285C61.0362 39.9576 63.7841 41.0377 64.0125 39.4835C64.1315 38.6738 62.7464 37.2892 62.4074 37.8789C61.9395 38.6927 61.3506 38.4035 61.4204 37.3942C61.5559 35.4368 59.5043 34.5392 55.8495 34.9568C54.9603 35.0584 53.7801 35.0259 53.2268 34.8846C51.4466 34.4301 50.1676 35.8551 50.5104 37.9112C50.5944 38.4149 50.5176 39.3895 50.3398 40.0769C50.162 40.7643 49.9561 42.4498 49.8822 43.8224C49.8084 45.195 49.5445 47.0263 49.2958 47.8919C48.9446 49.1142 48.8402 50.6371 48.8283 54.7117C48.8198 57.597 48.7263 60.7379 48.6204 61.6915C48.4654 63.0877 48.5077 63.4897 48.8379 63.7564C49.3394 64.1616 49.3762 64.8103 48.8975 64.8103C48.7049 64.8103 48.3972 64.6643 48.2139 64.4858C47.8513 64.1328 45.9576 65.8144 45.8401 66.5936C45.6559 67.8155 41.4193 72.8308 40.7747 72.59C40.2363 72.3889 40.4442 71.9423 41.8262 70.3321C42.3513 69.7203 42.7808 69.117 42.7808 68.9914C42.7808 68.8658 43.1221 68.3753 43.5392 67.9015C43.9564 67.4276 44.6691 66.4418 45.1232 65.7108C45.5772 64.9798 46.2464 64.069 46.6103 63.6868C46.9741 63.3046 47.2889 62.8404 47.3099 62.6552C47.7593 58.6809 47.8505 57.5093 47.7447 57.0724C47.5232 56.158 47.4194 49.4771 47.6224 49.2034C47.9053 48.8219 48.4476 46.6687 48.4152 46.0558C48.3552 44.921 48.6654 41.8037 48.9372 40.8097C49.0951 40.2327 49.1915 39.0523 49.1516 38.1867C48.9981 34.8619 50.06 33.8207 53.6736 33.753C56.7531 33.6953 56.792 33.6656 56.8178 31.3514C56.829 30.3501 57.0658 28.1734 57.3441 26.5143C57.6223 24.8553 57.8764 22.8741 57.9088 22.1116C58.0072 19.7929 59.4264 18.8912 60.7762 20.2898C61.5623 21.1044 62.1973 23.8444 61.8973 25.1277C61.7697 25.674 61.6459 27.8914 61.6223 30.0554C61.5956 32.5007 61.471 34.0564 61.2932 34.1657C60.9961 34.3482 61.6298 35.2736 63.2383 37.0064C65.234 39.1562 65.3421 40.4971 63.5423 40.7773C62.1836 40.9888 60.5359 40.3766 59.6238 39.3214C58.1286 37.5916 57.2535 38.3006 57.2089 41.278C57.1705 43.8447 57.1705 43.8447 57.8573 43.7183C58.235 43.6488 59.0595 43.5163 59.6893 43.4237C60.8345 43.2555 60.8345 43.2555 60.8345 42.079C60.8345 41.0973 60.9844 40.4212 61.3778 40.5001C61.746 40.5739 61.7668 41.3304 61.7281 42.1819C61.6815 43.2072 61.7339 43.2901 62.6038 43.5696C63.1127 43.7331 63.5291 43.9758 63.5291 44.1088C63.5291 44.5964 64.2562 44.3329 64.591 43.724C65.3441 42.3541 68.18 42.1299 67.7949 43.4707C67.6836 43.8579 68.1232 46.4743 68.3762 46.9311C70.8353 51.3709 71.0526 53.4127 69.4274 56.8101C69.2894 57.0986 69.1311 57.5712 69.0756 57.8603C68.7383 59.6178 68.2533 60.719 67.4868 61.4678C67.0079 61.9357 66.334 62.7642 65.9893 63.309C65.6445 63.8538 65.2149 64.444 65.0344 64.6205C64.854 64.797 64.3755 65.4919 63.9711 66.1647C63.1525 67.5264 61.2231 69.3763 60.3354 69.6506C60.0127 69.7503 59.6799 70.1395 59.5811 70.5328C59.4838 70.9199 59.332 71.2957 59.2436 71.3678C59.0848 71.4975 57.8915 74.1399 57.7629 74.6466C57.7262 74.7909 57.493 75.3659 57.2445 75.9246C56.996 76.4832 56.8306 78.3622 56.8306 78.4734C56.8306 78.8323 55.816 78.0717 55.692 77.7374ZM56.0302 43.1049C56.2172 39.1006 56.1994 38.8425 55.7362 38.8425C55.3801 38.8425 55.2101 39.2775 54.9418 40.8753C54.754 41.9934 54.5457 43.1737 54.4788 43.4983C54.3742 44.0062 54.4707 44.0885 55.1708 44.0885C55.923 44.0885 55.9877 44.0144 56.0302 43.1049ZM60.6998 27.691C60.6998 20.9509 60.6227 20.5237 59.4175 20.5829C58.8976 20.6084 58.8136 20.7586 58.8136 21.6618C58.8136 22.5155 58.9014 22.6966 59.2851 22.6339C59.9255 22.5292 59.8882 23.2147 59.2045 24.1149C58.9009 24.5147 58.6019 25.2305 58.5402 25.7054C58.4784 26.1804 58.3582 26.7828 58.2729 27.0442C58.1877 27.3055 58.2501 27.5988 58.4115 27.696C58.5986 27.8085 58.613 27.983 58.4513 28.1771C58.3118 28.3445 58.1141 29.5412 58.0121 30.8364C57.91 32.1315 57.7686 33.2824 57.6979 33.3938C57.6271 33.5053 58.0542 33.5965 58.647 33.5965C59.2398 33.5965 59.7873 33.6948 59.8636 33.815C60.5542 34.9027 60.6998 33.8366 60.6998 27.691ZM54.637 67.3022C54.637 67.0814 54.8775 66.9087 55.1849 66.9087C55.4862 66.9087 56.3202 66.6189 57.0382 66.2647C58.4214 65.5825 58.6979 65.6006 58.4938 66.3605C58.2203 67.3788 54.637 68.2537 54.637 67.3022ZM57.4834 61.2037C57.5726 60.8069 57.7444 60.1747 57.8652 59.7988C58.1702 58.8496 57.5787 55.8921 57.0839 55.8921C56.2769 55.8921 55.6718 54.2426 56.1571 53.3654C56.6553 52.4649 56.6553 52.4649 55.7809 51.7988C55.2999 51.4324 54.9064 50.9604 54.9064 50.7499C54.9064 50.1058 55.6601 50.0414 56.4169 50.6209C57.2514 51.2599 60.101 51.4155 60.4818 50.8428C60.6162 50.6406 60.7826 51.0679 60.9158 51.9575C61.2243 54.0178 61.2147 54.824 60.8662 56.0965C60.3062 58.1412 61.016 59.1481 62.1684 57.944C62.8963 57.1835 63.0938 57.4453 62.5674 58.4725C61.2215 61.0989 59.2474 58.0525 60.1606 54.7583C60.5077 53.5065 59.3223 51.9959 58.2942 52.38C58.0611 52.467 57.8705 52.7027 57.8705 52.9037C57.8705 53.1046 57.7622 53.269 57.6298 53.269C56.9998 53.269 57.1211 54.172 57.87 55.0564C58.3149 55.5817 58.6788 56.2123 58.6788 56.4577C58.6788 56.703 58.8304 57.0598 59.0157 57.2504C59.2009 57.441 59.3741 58.0101 59.4006 58.5151C59.427 59.02 59.5336 59.8295 59.6375 60.3141C59.8135 61.1345 59.7857 61.1824 59.2337 61.0119C58.7719 60.8692 58.6085 60.9498 58.4938 61.3769C58.2539 62.2698 57.2813 62.1031 57.4834 61.2037Z" fill="#B82236"/>
<path id="path25117-6" d="M59.8446 33.7294C59.6957 33.6357 59.2262 33.5579 58.8013 33.5564C58.2956 33.5547 57.9941 33.4659 57.9285 33.2995C57.8734 33.1597 57.9709 32.0332 58.1452 30.7963C58.3196 29.5593 58.4491 28.152 58.4331 27.6689C58.3928 26.4554 58.7099 25.1986 59.3248 24.1341C59.9649 23.0262 59.9771 22.7014 59.3845 22.5566C58.9632 22.4537 58.9289 22.3754 58.9784 21.631C59.0274 20.8952 59.0786 20.8127 59.5167 20.7634C60.411 20.6628 60.4705 21.0146 60.5361 26.7905C60.5933 31.8194 60.5057 33.9083 60.2377 33.9024C60.1704 33.9009 59.9935 33.823 59.8446 33.7294Z" fill="#F5D999"/>
<path id="path25125-5" d="M57.4546 43.7438C57.2253 43.674 57.1862 43.3849 57.2047 41.8956C57.2136 41.1747 57.2222 40.8685 57.2412 40.5953C57.3317 39.2921 57.6222 38.5582 58.1021 38.4206C58.1908 38.3952 58.3345 38.395 58.4343 38.4199C58.7731 38.5056 59.1221 38.7687 59.5944 39.2946C59.8919 39.626 60.1449 39.845 60.4769 40.0585C60.7241 40.2175 60.9688 40.3466 61.2164 40.4488C61.258 40.466 61.295 40.4827 61.2986 40.4859C61.3021 40.4892 61.2886 40.494 61.2685 40.4967C61.1086 40.518 60.9797 40.7254 60.9104 41.073C60.8573 41.3389 60.8431 41.5226 60.8339 42.0584C60.8247 42.5983 60.8209 42.699 60.8055 42.8058C60.7815 42.9726 60.7385 43.0764 60.6636 43.1483C60.6129 43.1969 60.6007 43.2052 60.5326 43.2379C60.3869 43.3078 60.2846 43.3281 59.3581 43.4708C58.6603 43.5783 58.278 43.6401 57.8947 43.7072C57.5973 43.7593 57.5258 43.7652 57.4546 43.7435V43.7438Z" fill="#F5D999"/>
</g>
<path id="path159" d="M50.3244 116.991C46.6431 116.934 46.1352 116.906 45.8883 116.749C45.7349 116.651 45.6093 116.513 45.6093 116.442C45.6093 116.371 45.3252 115.904 44.9779 115.404C44.1283 114.181 44.0686 113.983 44.0686 112.388C44.0686 110.794 44.128 110.596 44.9779 109.373C45.3252 108.873 45.6093 108.406 45.6093 108.335C45.6093 108.264 45.7305 108.128 45.8785 108.034C46.1182 107.881 46.8569 107.853 52.5921 107.78C59.0495 107.698 71.6345 107.805 71.9922 107.945C72.0969 107.986 72.2819 108.212 72.4035 108.446C72.525 108.681 72.8356 109.163 73.0937 109.517C73.819 110.513 73.9118 110.839 73.9118 112.388C73.9118 113.968 73.8437 114.191 72.9833 115.42C72.6547 115.89 72.386 116.341 72.386 116.422C72.386 116.504 72.2656 116.648 72.1185 116.742C71.6643 117.031 60.8466 117.155 50.3244 116.991ZM71.178 115.984C71.4426 115.92 71.6424 115.713 72.154 114.973C72.9247 113.859 73.0651 113.383 73.0013 112.104C72.9484 111.044 72.8415 110.754 72.1498 109.792C71.8999 109.444 71.6445 109.075 71.5822 108.972C71.4776 108.798 71.1642 108.777 67.4382 108.691C63.1999 108.593 47.5321 108.677 46.8707 108.801C46.5379 108.863 46.4054 108.986 45.9049 109.7C45.1125 110.83 45.0856 110.889 44.9781 111.722C44.8632 112.612 44.9963 113.647 45.294 114.177C45.4967 114.537 46.3716 115.801 46.5164 115.942C46.6565 116.079 51.8691 116.135 61.176 116.1C66.4942 116.081 70.995 116.028 71.178 115.984ZM39.3932 110.68C39.2764 110.629 38.4874 110.325 37.6401 110.003C26.6829 105.846 17.1056 98.2808 10.4885 88.556C5.2105 80.799 2.13678 72.3143 1.12448 62.7072C0.9012 60.588 0.867448 54.7417 1.0667 52.7296C1.77937 45.5373 3.39319 39.6323 6.32271 33.4981C12.0201 21.5685 22.1945 11.6773 34.4523 6.15184C40.7356 3.31953 46.7985 1.75438 54.163 1.06343C56.2307 0.869481 62.2388 0.902409 64.4167 1.11974C71.8454 1.8609 77.9869 3.54399 84.4461 6.60885C101.998 14.937 114.027 31.164 116.579 49.9547C117.259 54.9645 117.223 60.6265 116.48 65.6365C114.033 82.1305 104.1 96.765 89.3339 105.63C85.6505 107.842 78.6883 110.946 77.8638 110.745C77.4543 110.645 76.8381 110.063 76.5933 109.545C76.3983 109.133 76.3693 108.84 76.3371 106.96C76.3169 105.795 76.2689 104.808 76.2294 104.768C76.1903 104.729 75.9668 104.737 75.733 104.787C74.2005 105.117 68.3125 105.811 64.6919 106.088C61.5783 106.327 54.8105 106.249 51.6127 105.938C48.642 105.649 45.3722 105.246 43.4917 104.937C42.6486 104.799 41.9008 104.685 41.8302 104.685C41.7356 104.685 41.6886 105.25 41.6518 106.831C41.5989 109.088 41.5371 109.428 41.0664 110.045C40.5858 110.674 39.9436 110.918 39.3932 110.68ZM40.51 109.982C41.0486 109.458 41.2437 108.836 41.0157 108.371C40.6826 107.691 38.879 107.004 34.873 106.032C33.6774 105.741 32.5015 105.432 32.26 105.344C31.3374 105.008 30.635 104.159 30.6294 103.374C30.6294 103.192 30.7458 102.681 30.891 102.236C31.1968 101.3 32.0444 96.865 32.2211 95.2767C32.2877 94.6795 32.3894 93.9183 32.4477 93.585C32.5477 93.0112 32.5403 92.9701 32.3074 92.8121C31.6074 92.3369 29.3656 90.5172 28.3038 89.5625C24.4498 86.0968 21.024 81.6493 18.6413 77.0183C16.4037 72.6694 14.9658 68.0678 14.2509 62.9675C13.9715 60.9739 13.8589 56.0433 14.0435 53.8866C15.4497 37.4539 26.0161 23.2976 41.6384 16.9162C45.8629 15.1907 50.6049 14.0753 55.3519 13.6906C57.5684 13.511 62.6356 13.6208 64.6844 13.8925C76.6487 15.4804 86.8406 21.0836 94.3356 30.1937C97.561 34.1143 100.083 38.673 101.771 43.6308C102.793 46.6332 103.39 49.2353 103.8 52.4711C104.073 54.6206 104.075 60.1736 103.8 62.2926C102.685 71.0039 99.5554 78.2804 94.0156 85.0405C92.5745 86.799 89.0567 90.2021 87.175 91.658C86.1977 92.4141 85.677 92.8832 85.713 92.9746C85.7946 93.1815 85.9572 94.2799 86.0385 95.1731C86.1454 96.3474 87.134 101.53 87.3563 102.082C87.8047 103.194 87.7225 103.989 87.0937 104.619C86.5894 105.124 86.0032 105.351 83.8393 105.878C79.2784 106.989 77.5157 107.647 77.1796 108.365C76.8877 108.988 77.1492 109.844 77.7477 110.226C78.0132 110.395 78.0586 110.388 79.1076 110.011C92.649 105.146 104.063 95.1543 110.586 82.4557C116.329 71.2748 118.052 58.6485 115.517 46.3191C113.624 37.1158 109.424 28.6665 103.028 21.1941C101.589 19.5129 98.1507 16.1533 96.3968 14.7151C81.8525 2.78803 62.984 -1.45469 44.5968 3.06762C40.7969 4.00224 37.3496 5.25475 33.5462 7.08236C27.4811 9.99685 23.0617 13.0845 18.2397 17.7767C14.5008 21.4148 11.9558 24.5853 9.27178 28.9488C8.24637 30.6157 6.13231 34.8015 5.38127 36.6517C1.6282 45.8979 0.45592 55.8221 1.94293 65.7573C3.12315 73.642 6.21869 81.4961 10.8064 88.2458C15.2194 94.7385 20.539 99.9146 27.2238 104.22C30.9737 106.636 34.5915 108.448 38.5933 109.916C39.2654 110.163 39.8806 110.366 39.9606 110.368C40.0405 110.368 40.2864 110.197 40.507 109.982H40.51ZM66.595 105.525C73.2734 104.855 76.7443 104.295 79.1878 103.494C81.4426 102.754 84.2582 102.112 86.0189 101.936C86.5226 101.886 86.7308 101.823 86.7308 101.721C86.7308 101.641 86.5139 100.429 86.2491 99.0268C85.9842 97.6245 85.6966 95.8464 85.6096 95.0756C85.5227 94.3047 85.3817 93.4371 85.2962 93.1475C84.8736 91.7163 83.9502 91.4798 81.0972 92.0718C77.3728 92.8445 71.2032 93.4929 63.9387 93.8751C62.3023 93.9612 60.5809 94.0527 60.1134 94.0786C59.1913 94.1293 56.48 94.0216 52.463 93.7737C45.8428 93.3651 41.1802 92.8507 37.4685 92.1194C34.7905 91.5919 33.9375 91.6494 33.3638 92.3964C32.9907 92.8823 32.8868 93.2681 32.6993 94.8631C32.5376 96.2385 32.2306 98.0647 31.7525 100.498C31.6183 101.18 31.5284 101.774 31.5523 101.816C31.5762 101.859 31.7257 101.894 31.8845 101.894C32.995 101.894 37.0619 102.803 39.2339 103.537C41.1711 104.192 44.6206 104.78 49.628 105.309C53.9706 105.768 54.8457 105.809 59.6884 105.779C63.5684 105.755 64.7432 105.711 66.595 105.525ZM63.0354 93.5162C70.8318 93.1253 77.2107 92.4555 81.2716 91.6011C82.6552 91.3101 83.8954 91.2721 84.4643 91.5034C84.675 91.5891 85.0028 91.8195 85.1928 92.0155C85.5382 92.3719 85.5383 92.3718 86.958 91.2655C88.7924 89.8361 91.1418 87.6046 93.0945 85.4369C94.6445 83.7164 95.1914 83.0467 95.4449 82.559C95.5188 82.4168 95.7647 82.0447 95.9913 81.7319C97.8816 79.1229 99.0092 77.0488 100.601 73.2535C101.352 71.462 102.403 67.8619 102.875 65.4654C103.431 62.6385 103.563 61.0991 103.563 57.4341C103.562 54.7927 103.519 53.6389 103.381 52.5745C103.139 50.7042 102.72 48.4891 102.34 47.0695C102.169 46.4293 101.984 45.7195 101.929 45.492C101.403 43.3091 99.5835 39.0451 98.0016 36.2898C91.9745 25.7931 81.6634 18.1143 69.7628 15.26C66.0981 14.3811 62.8864 14.0077 59.0071 14.0093C55.3902 14.0093 52.9682 14.2501 49.6561 14.9333C38.9521 17.1411 29.3419 23.2298 22.8322 31.9277C20.1846 35.4652 17.7205 40.1944 16.4381 44.1995C14.972 48.7783 14.3731 52.6155 14.3709 57.4433C14.3709 61.1245 14.7317 64.1627 15.589 67.6564C16.0547 69.5541 17.1397 72.8182 17.7073 74.029C17.7872 74.1995 17.8851 74.4438 17.9248 74.5718C17.9646 74.6997 18.0363 74.8044 18.0845 74.8044C18.1323 74.8044 18.2038 74.9324 18.2427 75.0887C18.3409 75.4834 19.2443 77.3746 19.514 77.7499C19.636 77.9197 19.812 78.2225 19.905 78.4227C20.2906 79.2521 22.7522 82.9668 23.6049 84.0059C25.9075 86.8122 29.2931 90.0466 32.0428 92.0668C32.6576 92.5184 32.6576 92.5184 32.9896 92.1266C33.6985 91.2897 34.8443 91.1432 37.0506 91.6073C40.6236 92.3591 45.7812 92.9432 52.5692 93.3648C58.5382 93.7357 58.6336 93.7368 63.0354 93.5162Z" fill="black"/>
<g id="text193">
<path id="path1344" d="M54.134 114.842H51.3415C51.3415 114.726 51.3487 114.624 51.3632 114.535C51.3777 114.443 51.4065 114.326 51.4493 114.187C51.497 114.043 51.5805 113.894 51.6998 113.741C51.8239 113.583 51.9791 113.428 52.1652 113.274L52.8526 112.703C53.3108 112.327 53.5399 111.876 53.5399 111.351C53.5399 110.989 53.4493 110.711 53.2678 110.515C53.0865 110.316 52.8287 110.216 52.4946 110.216C52.2607 110.216 52.0482 110.292 51.8573 110.446C51.6711 110.594 51.5781 110.762 51.5781 110.947C51.5781 111.147 51.6759 111.263 51.8716 111.296C52.0243 111.319 52.1366 111.37 52.2082 111.449C52.2846 111.523 52.3227 111.614 52.3227 111.721C52.3227 111.809 52.2893 111.883 52.2225 111.944C52.1604 112.004 52.0722 112.034 51.9576 112.034C51.7619 112.034 51.5995 111.96 51.4706 111.811C51.3418 111.658 51.2773 111.458 51.2773 111.212C51.2773 110.854 51.411 110.557 51.6783 110.32C51.9503 110.083 52.2892 109.965 52.695 109.965C53.1628 109.965 53.547 110.09 53.8477 110.341C54.1484 110.587 54.2989 110.924 54.2989 111.351C54.2989 111.505 54.2655 111.653 54.1987 111.797C54.1318 111.941 54.0339 112.078 53.905 112.208C53.7761 112.338 53.6616 112.445 53.5613 112.529C53.4611 112.608 53.3347 112.701 53.182 112.808L52.4803 113.337C52.065 113.62 51.8573 113.876 51.8573 114.103C51.8573 114.215 51.9314 114.271 52.0794 114.271H53.4325C53.6234 114.271 53.7571 114.231 53.8334 114.152C53.9146 114.069 53.9695 113.952 53.9981 113.804L54.0769 113.393H54.2345L54.134 114.842Z" stroke="#0F244D"/>
<path id="path1346" d="M56.9769 114.731C57.144 114.731 57.2895 114.679 57.4136 114.577C57.5424 114.47 57.6379 114.345 57.7 114.201C57.7668 114.052 57.8194 113.867 57.8576 113.644C57.8957 113.421 57.9195 113.223 57.9292 113.051C57.9388 112.88 57.9437 112.684 57.9437 112.466C57.9437 112.243 57.9388 112.046 57.9292 111.874C57.9195 111.702 57.8957 111.505 57.8576 111.282C57.8195 111.059 57.7669 110.875 57.7 110.731C57.6379 110.583 57.5424 110.457 57.4136 110.355C57.2895 110.248 57.144 110.195 56.9769 110.195C56.8099 110.195 56.6618 110.248 56.5329 110.355C56.4088 110.457 56.3135 110.583 56.2467 110.731C56.1846 110.875 56.1345 111.059 56.0963 111.282C56.0582 111.505 56.0342 111.702 56.0246 111.874C56.0149 112.046 56.0101 112.243 56.0101 112.466C56.0101 112.684 56.0149 112.88 56.0246 113.051C56.0342 113.223 56.0582 113.421 56.0963 113.644C56.1344 113.867 56.1845 114.052 56.2467 114.201C56.3135 114.345 56.4088 114.47 56.5329 114.577C56.6618 114.679 56.8099 114.731 56.9769 114.731ZM56.9769 114.954C56.6428 114.954 56.3396 114.833 56.0675 114.591C55.8002 114.345 55.5974 114.034 55.4589 113.658C55.3205 113.281 55.2513 112.882 55.2513 112.459C55.2513 112.037 55.3205 111.637 55.4589 111.261C55.5974 110.885 55.8002 110.576 56.0675 110.334C56.3396 110.088 56.6428 109.965 56.9769 109.965C57.3111 109.965 57.6117 110.088 57.879 110.334C58.1511 110.576 58.3563 110.885 58.4948 111.261C58.6332 111.637 58.7024 112.037 58.7024 112.459C58.7024 112.882 58.6332 113.281 58.4948 113.658C58.3563 114.034 58.1511 114.345 57.879 114.591C57.6117 114.833 57.3111 114.954 56.9769 114.954Z" stroke="#0F244D"/>
<path id="path1348" d="M59.9131 114.842V114.619H60.6005C60.7341 114.619 60.8008 114.559 60.8008 114.438V111.017H59.9131V110.766H60.3068C60.5645 110.766 60.7723 110.699 60.9298 110.564C61.0921 110.43 61.1924 110.267 61.2306 110.076H61.4596V114.438C61.4596 114.559 61.5265 114.619 61.6601 114.619H62.3475V114.842H59.9131Z" stroke="#0F244D"/>
<path id="path1350" d="M63.9519 110.076H66.7013C66.7013 110.318 66.663 110.594 66.5866 110.906C66.515 111.217 66.3909 111.5 66.2143 111.756L65.8063 112.355C65.6106 112.722 65.5127 113.024 65.5127 113.26C65.5127 113.46 65.5269 113.634 65.5554 113.783L65.5982 114.027C65.6363 114.213 65.6552 114.375 65.6552 114.515C65.6552 114.807 65.5144 114.954 65.2328 114.954C65.0609 114.954 64.9225 114.893 64.8175 114.772C64.7173 114.652 64.6672 114.489 64.6672 114.285C64.6672 114.141 64.6959 113.978 64.7532 113.797C64.8153 113.616 64.8725 113.476 64.925 113.379C64.9775 113.277 65.0682 113.116 65.1971 112.898C65.3259 112.68 65.3999 112.554 65.419 112.522L65.9919 111.721C66.2353 111.382 66.3569 111.084 66.3569 110.829C66.3569 110.708 66.283 110.648 66.135 110.648H64.6528C64.4619 110.648 64.326 110.69 64.2449 110.773C64.1685 110.852 64.1159 110.966 64.0872 111.115L64.0084 111.526H63.851L63.9519 110.076Z" stroke="#0F244D"/>
</g>
<g id="text1147">
<path id="path1173" d="M43.2509 95.4119L43.2205 95.7027C43.6565 95.7799 43.7143 96.0793 43.6764 96.4471L43.2614 100.467C43.2237 100.835 43.1054 101.117 42.6624 101.109L42.6327 101.399L47.8101 101.906C48.0914 101.933 48.6312 102.038 48.564 102.688C48.5394 102.927 48.3255 103.278 47.8332 103.23C47.1915 103.167 46.4438 102.671 45.4066 102.31C45.0726 102.191 44.7008 102.094 44.4019 102.065C43.5317 101.98 42.9997 102.317 42.952 102.778C42.9208 103.078 43.0722 103.248 43.2656 103.267C43.4414 103.284 43.5865 103.169 43.6042 102.998C43.6201 102.844 43.5208 102.687 43.3274 102.668C43.3101 102.668 43.2832 102.661 43.2651 102.668C43.3452 102.408 43.7056 102.443 43.8287 102.456C44.5934 102.53 45.1629 102.949 46.033 103.293C46.067 103.305 46.767 103.581 47.3471 103.638C48.4107 103.742 48.8189 103.142 48.8639 102.706C48.9095 102.261 48.7043 102.016 48.5128 101.808C48.2342 101.495 48.2871 101.328 48.3066 101.139L48.7402 96.9396C48.7793 96.5633 48.9128 96.2998 49.3304 96.2975L49.3608 96.0067L47.5675 95.8314L47.5371 96.1222C47.9432 96.231 48.0231 96.4894 47.9843 96.8658L47.5019 101.536L43.9507 101.189L44.4329 96.5185C44.4538 96.3133 44.5228 95.9052 45.023 95.8764L45.0527 95.5855L43.2509 95.4119Z" stroke="#0F244D" stroke-width="2.07548"/>
<path id="path1175" d="M53.9086 96.2831L52.1092 96.1882L52.0933 96.4802C52.5148 96.5365 52.5959 96.8251 52.5749 97.2028L52.3505 101.237C52.3295 101.615 52.2168 101.893 51.7915 101.905L51.7754 102.197L53.575 102.292L53.5909 102C53.1694 101.944 53.0883 101.655 53.1093 101.277L53.2153 99.3717L56.7704 99.5589L56.6644 101.464C56.6398 101.902 56.4957 102.11 56.1051 102.132L56.0885 102.424L57.897 102.52L57.9129 102.228C57.5443 102.173 57.399 101.925 57.4224 101.505L57.6468 97.4699C57.6606 97.221 57.7271 96.82 58.2147 96.8026L58.2313 96.5107L56.4228 96.4154L56.4069 96.7073C56.7927 96.7707 56.9132 96.9923 56.8888 97.4301L56.789 99.2241L53.2338 99.0369L53.3337 97.2428C53.3568 96.8222 53.5026 96.5888 53.8927 96.5748L53.9086 96.2831Z" stroke="#0F244D" stroke-width="2.07548"/>
<path id="path1177" d="M60.4868 96.4923L60.5041 96.784C60.9212 96.8038 61.0522 97.0717 61.0748 97.4494L61.3153 101.483C61.3377 101.861 61.2396 102.142 60.8276 102.208L60.8449 102.5L62.6529 102.398L62.6356 102.106C62.2185 102.086 62.0968 101.826 62.0737 101.44L62.0608 101.217L65.4081 97.8419H65.4348L65.6376 101.24C65.6593 101.61 65.5709 101.907 65.1498 101.966L65.1673 102.257L66.9752 102.155L66.9579 101.863C66.5139 101.837 66.4192 101.584 66.3962 101.198L66.1555 97.1641C66.1331 96.7865 66.2047 96.5068 66.6344 96.4396L66.6171 96.1477L64.8089 96.2498L64.8264 96.5416C65.119 96.5508 65.37 96.752 65.3869 97.0352L65.4035 97.3098L62.0556 100.676H62.0288L61.8339 97.4066C61.8115 97.029 61.883 96.7493 62.3127 96.6821L62.2954 96.3902L60.4868 96.4923Z" stroke="#0F244D" stroke-width="2.07548"/>
<path id="path1179" d="M69.3267 95.9769L69.3578 96.2676C69.7754 96.2676 69.9185 96.5312 69.9584 96.9074L70.3835 100.927C70.4233 101.303 70.3378 101.588 69.9294 101.672L69.9605 101.963L71.7621 101.782L71.731 101.492C71.3134 101.492 71.1799 101.236 71.1392 100.851L71.1161 100.629L74.3054 97.1117H74.3316L74.6898 100.498C74.7288 100.866 74.6535 101.167 74.2356 101.244L74.2669 101.534L76.0683 101.354L76.0379 101.063C75.5931 101.056 75.4869 100.807 75.4462 100.422L75.0211 96.4032C74.9813 96.027 75.0399 95.7446 75.4663 95.6587L75.4352 95.3679L73.6336 95.5483L73.6649 95.839C73.9576 95.839 74.2174 96.0257 74.2473 96.3079L74.2763 96.5815L71.0859 100.09H71.0599L70.7153 96.8319C70.6755 96.4557 70.7342 96.1731 71.1606 96.0872L71.1293 95.7966L69.3267 95.9769Z" stroke="#0F244D" stroke-width="2.07548"/>
</g>
<g id="text3828-3-9-1">
<path id="path1256" d="M19.084 87.8161C19.635 87.414 20.0939 87.0119 20.4605 86.6098C20.827 86.2077 21.0853 85.8547 21.2354 85.5507C21.3855 85.2467 21.4728 84.981 21.4974 84.7536C21.5144 84.5166 21.475 84.3359 21.3794 84.2115C20.8924 83.5795 19.5813 84.0426 17.446 85.6007C15.3106 87.1588 14.4865 88.2538 14.9735 88.8857C15.1432 89.106 15.4395 89.2113 15.8626 89.2018C16.2784 89.1828 16.7766 89.0512 17.3572 88.8069C17.9377 88.5628 18.5133 88.2325 19.084 87.8161ZM27.7183 85.7343L27.0986 84.93C27.0322 84.8438 26.9682 84.8007 26.9067 84.8007C26.8477 84.7842 26.7738 84.8082 26.6852 84.8728L17.5045 91.572C17.4159 91.6366 17.3716 91.6988 17.3716 91.7587C17.3541 91.8161 17.3789 91.8879 17.4458 91.974L18.0655 92.7784L17.7113 93.0368L15.6305 90.3367L16.4865 89.712L16.42 89.6259C16.0412 89.6929 15.6597 89.6868 15.276 89.6077C14.8923 89.5286 14.5825 89.3359 14.3463 89.0295C13.9626 88.5316 13.793 87.9523 13.8373 87.2917C13.8818 86.631 14.1032 85.9908 14.5016 85.3708C14.9002 84.7509 15.4094 84.2149 16.0293 83.7625C16.6492 83.3102 17.3172 82.9798 18.033 82.7717C18.7488 82.5635 19.4351 82.5265 20.0919 82.6605C20.7487 82.7946 21.2689 83.1107 21.6526 83.6085C21.8887 83.915 22.0056 84.2561 22.0031 84.6319C21.9981 85.0077 21.8935 85.3906 21.6893 85.7807L21.7853 85.8456L25.4014 83.2068C25.49 83.1422 25.538 83.0848 25.5454 83.0345C25.5554 82.9675 25.5272 82.8909 25.4606 82.8047L24.8407 82.0003L25.1949 81.7419L28.0727 85.4762L27.7183 85.7343Z" fill="#0F244D"/>
<path id="path1258" d="M11.4472 83.6272L11.0461 83.8094L9.13561 79.8232L9.53675 79.6411L9.763 80.113C9.80991 80.2106 9.89312 80.285 10.0126 80.3364C10.1271 80.3767 10.2512 80.3665 10.3849 80.3058C10.5075 80.2502 10.6454 80.1414 10.7985 79.9794L14.1251 76.4295L9.95653 77.0337C9.60801 77.0994 9.34462 77.1727 9.16631 77.2536C8.99908 77.3295 8.87485 77.4387 8.79386 77.5811C8.70169 77.7286 8.69483 77.8837 8.77303 78.0464L8.9757 78.4694L8.57438 78.6515L7.2878 75.967L7.68912 75.7849L7.86054 76.1428C7.95411 76.338 8.13439 76.4874 8.40113 76.5909C8.66262 76.6835 8.98393 76.7026 9.36515 76.6484L18.994 75.2895C20.53 75.0679 21.4876 75.3529 21.8671 76.1447C22.0803 76.5894 22.1126 77.0106 21.9639 77.4083C21.8152 77.8059 21.5123 78.1083 21.0553 78.3157C20.6874 78.4827 20.3095 78.5155 19.9217 78.4142C19.5339 78.3129 19.2569 78.0887 19.0905 77.7416C18.9658 77.4813 18.9423 77.2344 19.0202 77.0009C19.1042 76.7515 19.2632 76.5736 19.4973 76.4674C19.776 76.3409 20.0594 76.3377 20.3477 76.4578C20.5542 76.549 20.7355 76.5592 20.8915 76.4884C20.9918 76.4428 21.0654 76.3698 21.1123 76.2694C21.1703 76.1639 21.1703 76.0515 21.1123 75.9322C21.0499 75.802 20.9146 75.7181 20.7066 75.6805C20.4934 75.6319 20.3013 75.6134 20.1304 75.6251C19.9543 75.6251 19.7392 75.6436 19.4851 75.6805L17.3885 75.9782L11.8155 81.9343C11.5316 82.2481 11.3485 82.5028 11.266 82.6987C11.1782 82.8838 11.1994 83.112 11.3296 83.3832L11.4472 83.6272Z" fill="#0F244D"/>
<path id="path1260" d="M10.8749 72.8012C10.0519 73.0029 9.26736 73.0346 8.5214 72.8965C7.77539 72.7584 7.12612 72.4548 6.57344 71.9855C6.0207 71.5162 5.65262 70.9275 5.46943 70.2196C5.36134 69.8018 5.3354 69.407 5.39139 69.0353C5.44743 68.6637 5.57062 68.3558 5.7611 68.1117C5.94859 67.8559 6.17187 67.6408 6.43107 67.4661C6.6784 67.2945 6.94528 67.1736 7.23153 67.1034C7.6609 66.9983 8.06952 67.0338 8.45762 67.2102C8.83379 67.3896 9.06846 67.6591 9.16158 68.0189C9.23065 68.2858 9.21016 68.5254 9.10018 68.7375C8.97821 68.9525 8.78018 69.0936 8.50586 69.1609C8.17191 69.2427 7.80766 69.1344 7.41337 68.836C7.10277 68.616 6.82226 68.5366 6.57179 68.598C6.32133 68.6594 6.11727 68.8019 5.95957 69.0257C5.7899 69.2524 5.75775 69.5689 5.86289 69.9751C6.13622 71.0312 7.61455 71.2305 10.2981 70.5729C10.7275 70.4677 11.0496 70.3887 11.2643 70.3361C11.4641 70.2749 11.7039 70.1975 11.9842 70.1042C12.2614 69.9992 12.5058 69.89 12.7174 69.7764C13.1317 69.5639 13.4312 69.2746 13.6154 68.9085C13.7997 68.5424 13.8423 68.1679 13.7432 67.7849C13.6681 67.4947 13.5214 67.2468 13.3033 67.0411C13.0821 66.8238 12.8269 66.6704 12.5374 66.5809C12.2449 66.4798 11.936 66.4135 11.6108 66.3821C11.2856 66.3505 10.9649 66.3612 10.6488 66.4142L10.5317 65.9615C10.8239 65.9144 11.1162 65.892 11.4085 65.8945C11.7009 65.8945 12.0038 65.9376 12.3172 66.0237C12.6305 66.1073 12.92 66.2215 13.1858 66.3662C13.4515 66.5109 13.6906 66.7238 13.9029 67.005C14.1152 67.2862 14.2709 67.6183 14.37 68.0013C14.6523 69.0923 14.4543 70.0911 13.7757 70.9978C13.0942 71.893 12.1272 72.4944 10.8749 72.8012Z" fill="#0F244D"/>
<path id="path1262" d="M8.80629 63.7907C7.95897 63.8369 7.18251 63.7233 6.47692 63.4501C5.77133 63.1769 5.19291 62.759 4.74169 62.1962C4.29051 61.6335 4.04405 60.9876 4.00209 60.2587C3.97713 59.8285 4.02836 59.4361 4.15596 59.0815C4.28342 58.727 4.46451 58.4475 4.6991 58.2429C4.933 58.0264 5.1942 57.8563 5.48275 57.7327C5.75901 57.6097 6.04458 57.5403 6.33931 57.5242C6.78136 57.4999 7.17572 57.6103 7.52245 57.8553C7.85686 58.1008 8.0346 58.4088 8.05591 58.7792C8.07187 59.0541 8.00525 59.2855 7.85579 59.4734C7.69415 59.662 7.47211 59.7639 7.18966 59.7793C6.84582 59.7983 6.50933 59.6249 6.18031 59.259C5.91822 58.9856 5.65823 58.8558 5.40033 58.8699C5.14247 58.884 4.91438 58.9863 4.71592 59.1769C4.50517 59.3682 4.41184 59.673 4.43594 60.0912C4.49852 61.1786 5.91132 61.6471 8.67434 61.4965C9.11644 61.4722 9.44786 61.4542 9.66888 61.4426C9.87698 61.4193 10.1278 61.3876 10.4211 61.3476C10.7138 61.2957 10.9751 61.2335 11.2049 61.1611C11.6531 61.0288 12.0033 60.8 12.2556 60.4746C12.5078 60.1492 12.6228 59.7892 12.6001 59.3949C12.5831 59.0961 12.4874 58.8256 12.3131 58.5834C12.1384 58.3292 11.9175 58.1315 11.6507 57.9903C11.3832 57.837 11.0928 57.715 10.7797 57.6242C10.4665 57.5334 10.1495 57.4847 9.82879 57.4782L9.80193 57.0122C10.0981 57.02 10.3893 57.052 10.6758 57.1084C10.9624 57.1647 11.2515 57.2628 11.5428 57.4027C11.8342 57.5427 12.0963 57.7083 12.329 57.8994C12.5618 58.0905 12.7549 58.3436 12.9085 58.6588C13.0621 58.9741 13.1505 59.3289 13.1732 59.7232C13.2378 60.8465 12.8486 61.7907 12.0057 62.5559C11.1621 63.3091 10.0957 63.7205 8.80629 63.7907Z" fill="#0F244D"/>
<path id="path1264" d="M12.7592 55.2678L12.3206 55.2103L12.4146 54.5343C12.4295 54.4275 12.4211 54.354 12.3892 54.3136C12.3472 54.2597 12.2714 54.2255 12.1615 54.211L4.95808 53.2624C4.84839 53.2478 4.77207 53.2619 4.72891 53.3046C4.67521 53.3338 4.64089 53.4017 4.62602 53.5085L4.5319 54.1846L4.09311 54.127L4.6326 50.2487L5.07138 50.3062L4.99225 50.8755C4.97728 50.9822 4.99095 51.0625 5.03337 51.1164C5.06481 51.1567 5.13534 51.1841 5.24518 51.1987L8.49946 51.6273L8.65553 50.5065C8.68996 50.2574 8.61801 50.0608 8.4397 49.9165C8.26119 49.7722 8.01338 49.6791 7.69644 49.6374L6.45336 49.4737C5.84394 49.3935 5.39609 49.1775 5.10995 48.8258C4.82539 48.4622 4.71356 48.0611 4.77459 47.6223C4.83398 47.1953 5.00905 46.8741 5.29964 46.6588C5.59023 46.4434 5.94875 46.3638 6.37533 46.42C6.70444 46.4632 6.96826 46.6188 7.16683 46.8866C7.36539 47.1543 7.44653 47.4185 7.41025 47.6794C7.37382 47.9403 7.26416 48.1493 7.08112 48.3064C6.89792 48.4634 6.67825 48.5251 6.42229 48.4914C6.26385 48.4705 6.10159 48.3887 5.93526 48.2461C5.81439 48.1335 5.71119 48.0716 5.62586 48.0604C5.51617 48.0459 5.45318 48.0979 5.43671 48.2166C5.41375 48.3827 5.48526 48.5371 5.65144 48.6797C5.81777 48.8224 6.10212 48.9202 6.50435 48.9731L7.76571 49.1393C8.05824 49.1777 8.28499 49.2438 8.44573 49.3376C8.60647 49.4312 8.73532 49.575 8.83244 49.7689L8.92381 49.7806C9.09493 49.1751 9.38038 48.7296 9.78001 48.4441C10.1813 48.1467 10.7476 48.0462 11.4789 48.1425L12.6673 48.299C12.9964 48.3422 13.1791 48.2334 13.2154 47.9726C13.2715 47.5693 12.7144 47.2907 11.5443 47.1366L11.6086 46.6741C12.4131 46.78 13.0183 46.9804 13.4241 47.2754C13.8299 47.5704 13.9907 48.0204 13.9066 48.6252C13.8257 49.2064 13.609 49.6488 13.2565 49.9526C12.9039 50.2565 12.4229 50.3683 11.8135 50.288L10.3692 50.0977C10.0157 50.0511 9.73077 50.0921 9.51429 50.2207C9.29785 50.3492 9.17318 50.532 9.14019 50.7692L9.01153 51.6943L12.4486 52.147C12.5583 52.1615 12.6401 52.1542 12.6938 52.1251C12.7367 52.0824 12.7657 52.0078 12.7808 51.9011L12.8599 51.3318L13.2987 51.3893L12.7592 55.2678Z" fill="#0F244D"/>
<path id="path1266" d="M8.10183 40.8631C8.64778 41.2591 9.60888 41.6995 10.9851 42.1842C12.3614 42.669 13.3894 42.9294 14.0693 42.9653C14.7492 43.0012 15.1813 42.7715 15.3655 42.2763C15.5498 41.7812 15.3689 41.3356 14.8229 40.9396C14.277 40.5436 13.3159 40.1033 11.9396 39.6185C10.5634 39.1337 9.53544 38.8734 8.8555 38.8375C8.17556 38.8015 7.74343 39.0312 7.55924 39.5265C7.37504 40.0216 7.55588 40.4672 8.10183 40.8631ZM12.0228 44.6691C11.4081 44.6689 10.7943 44.5609 10.1814 44.345C9.56841 44.129 9.0314 43.8317 8.57059 43.4531C8.0982 43.0703 7.73571 42.6562 7.48285 42.2107C7.21846 41.7612 7.05374 41.2895 6.98887 40.7957C6.92404 40.3019 6.97545 39.8299 7.14293 39.3798C7.3104 38.9296 7.58137 38.5351 7.95599 38.1961C8.33062 37.8571 8.76744 37.5973 9.26633 37.4167C9.75359 37.2319 10.3046 37.1396 10.9193 37.1398C11.5225 37.135 12.1306 37.241 12.7436 37.4578C13.3565 37.6737 13.8991 37.9731 14.3715 38.3558C14.8323 38.7345 15.1948 39.1486 15.4593 39.5981C15.7121 40.0436 15.8711 40.5132 15.9359 41.007C16.0007 41.5008 15.9493 41.9728 15.7818 42.423C15.6144 42.8731 15.3434 43.2677 14.9688 43.6066C14.5941 43.9456 14.1631 44.2075 13.6758 44.3922C13.177 44.5729 12.626 44.6652 12.0228 44.6691Z" fill="#0F244D"/>
<path id="path1268" d="M17.6203 37.4927L17.2382 37.2752L17.592 36.6863C17.6479 36.5933 17.6693 36.5223 17.6564 36.4732C17.6389 36.4077 17.5823 36.3478 17.4866 36.2934L11.2116 32.7231C11.116 32.6687 11.04 32.6532 10.9833 32.6765C10.9222 32.6833 10.8637 32.7332 10.8079 32.8262L10.4539 33.4151L10.0717 33.1977L13.4242 27.6187L16.6335 29.3198L16.3727 29.7538C15.9868 29.5897 15.4274 29.4655 14.6945 29.3812C14.2572 29.3265 13.8198 29.3549 13.3823 29.4664C12.951 29.5676 12.6424 29.7732 12.4561 30.0832L12.186 30.5327C12.1301 30.6257 12.111 30.7049 12.1284 30.7703C12.1414 30.8195 12.1958 30.8712 12.2916 30.9256L18.5666 34.4958C18.6622 34.5502 18.7404 34.574 18.8015 34.5672C18.8582 34.5439 18.9145 34.4858 18.9703 34.3929L19.3243 33.804L19.7065 34.0215L17.6203 37.4927Z" fill="#0F244D"/>
<path id="path1270" d="M17.8617 23.9639C18.2226 24.5258 18.9538 25.2758 20.0551 26.2139C21.1564 27.152 22.0169 27.7579 22.637 28.0316C23.2571 28.3053 23.7455 28.244 24.102 27.8478C24.4584 27.4516 24.4559 26.9725 24.0945 26.4106C23.7336 25.8487 23.0024 25.0987 21.9011 24.1607C20.7998 23.2226 19.9393 22.6167 19.3192 22.343C18.6991 22.0692 18.2107 22.1305 17.8542 22.5268C17.4977 22.923 17.5002 23.402 17.8617 23.9639ZM20.0944 28.8957C19.5217 28.6783 18.99 28.3607 18.4995 27.9429C18.009 27.5251 17.6199 27.0583 17.3319 26.5426C17.0347 26.0191 16.8513 25.505 16.782 25.0006C16.7034 24.4883 16.7262 23.9907 16.8502 23.5078C16.9741 23.0248 17.1979 22.6032 17.522 22.2429C17.846 21.8827 18.246 21.6109 18.7216 21.4275C19.1971 21.2441 19.7011 21.1564 20.2333 21.1643C20.7563 21.1645 21.3041 21.2732 21.8768 21.4906C22.4402 21.7002 22.9671 22.0139 23.4576 22.4317C23.9481 22.8495 24.3419 23.3202 24.6391 23.8438C24.9271 24.3595 25.1104 24.8734 25.189 25.3857C25.2583 25.8901 25.231 26.3838 25.1071 26.8668C24.9832 27.3498 24.7592 27.7714 24.4351 28.1316C24.1111 28.4918 23.7113 28.7636 23.2357 28.947C22.7601 29.1304 22.2608 29.2221 21.7379 29.222C21.2057 29.2142 20.6579 29.1054 20.0944 28.8957Z" fill="#0F244D"/>
<path id="path1272" d="M30.4794 18.9357L30.9006 18.7126C31.1358 19.1332 31.379 19.4677 31.63 19.7163C31.8811 19.9649 32.1092 20.0349 32.3144 19.9262C32.5521 19.8004 32.5916 19.5955 32.4328 19.3117L31.8597 18.2866C31.507 17.6558 31.3967 17.108 31.5288 16.643C31.6716 16.1722 32.0032 15.7513 32.5238 15.3803L32.4798 15.3014C32.2482 15.2878 32.0587 15.2246 31.9116 15.1117C31.7753 14.9932 31.6366 14.8077 31.4955 14.5554L30.8871 13.4673C30.6931 13.1204 30.4979 12.8967 30.3018 12.7962C30.1055 12.6957 29.9318 12.6855 29.7805 12.7656C29.6725 12.8228 29.645 12.8987 29.6979 12.9933C29.7389 13.0669 29.835 13.1386 29.9863 13.2085C30.1825 13.309 30.3187 13.4276 30.3951 13.5643C30.5186 13.7851 30.5377 14.0067 30.4522 14.2292C30.3665 14.4516 30.2048 14.6258 29.9671 14.7516C29.7187 14.8832 29.4305 14.9062 29.1027 14.8208C28.7858 14.7298 28.548 14.5423 28.3893 14.2585C28.1835 13.8906 28.1323 13.5362 28.2357 13.1953C28.3392 12.8544 28.5853 12.581 28.9742 12.375C29.374 12.1634 29.7938 12.1251 30.2334 12.2602C30.6838 12.3896 31.0559 12.7172 31.3498 13.2428L31.9495 14.3151C32.1023 14.5884 32.2798 14.7806 32.4818 14.8916C32.6948 14.9969 32.9093 14.9923 33.1253 14.8778L33.8384 14.5003L32.2689 11.6934C32.216 11.5988 32.1591 11.5471 32.0982 11.5384C32.0423 11.5137 31.9657 11.527 31.8685 11.5785L31.2526 11.9046L31.041 11.5261L34.5738 9.65564L34.7854 10.0341L34.2669 10.3086C34.1697 10.3601 34.1112 10.4183 34.0915 10.4833C34.0765 10.532 34.0954 10.6036 34.1483 10.6983L35.7178 13.5051L36.4309 13.1276C36.647 13.0132 36.7619 12.8433 36.776 12.6178C36.8009 12.3868 36.7369 12.1345 36.5839 11.8612L35.9843 10.7889C35.6903 10.2633 35.6046 9.7842 35.7268 9.35163C35.8598 8.91334 36.126 8.5883 36.5258 8.37668C36.9147 8.17074 37.2844 8.1181 37.6347 8.21876C37.985 8.31943 38.263 8.55379 38.4688 8.92173C38.6275 9.20556 38.6547 9.50448 38.5503 9.81862C38.4567 10.1271 38.2856 10.3471 38.0371 10.4786C37.7994 10.6045 37.5614 10.642 37.3229 10.5911C37.0845 10.5403 36.9034 10.4044 36.78 10.1836C36.7036 10.047 36.6753 9.87122 36.6952 9.65635C36.7171 9.49493 36.7075 9.37741 36.6661 9.3038C36.6132 9.2092 36.5327 9.19049 36.4247 9.24769C36.2734 9.32777 36.1878 9.47526 36.1679 9.69013C36.148 9.90506 36.2351 10.186 36.4293 10.5329L37.0375 11.621C37.1786 11.8733 37.258 12.0902 37.2754 12.2717C37.3039 12.4475 37.261 12.6337 37.1468 12.8304L37.1908 12.9091C37.7938 12.6853 38.3318 12.6457 38.8047 12.7904C39.2885 12.9294 39.7068 13.3143 40.0595 13.9451L40.6326 14.9701C40.7913 15.2539 40.9896 15.3329 41.2273 15.2071C41.4325 15.0984 41.496 14.874 41.4179 14.5338C41.3397 14.1937 41.1832 13.8134 40.948 13.3929L41.3693 13.1698C41.7572 13.8637 41.949 14.457 41.9446 14.9499C41.9396 15.4428 41.6564 15.8379 41.0951 16.1353C40.5658 16.4156 40.0709 16.5073 39.6106 16.4103C39.1504 16.3134 38.7733 16.0022 38.4794 15.4766L37.7829 14.2308C37.6124 13.9259 37.41 13.7265 37.1755 13.6326C36.941 13.5388 36.7155 13.549 36.4995 13.6632L35.9647 13.9464L37.6225 16.9109C37.6754 17.0056 37.7298 17.0653 37.7857 17.0902C37.8465 17.0989 37.9257 17.0776 38.0229 17.0261L38.5413 16.7516L38.753 17.13L35.2202 19.0005L35.0086 18.622L35.6244 18.296C35.7217 18.2445 35.7776 18.1944 35.7924 18.1457C35.8118 18.0808 35.7954 18.001 35.743 17.9063L34.0853 14.9418L33.5506 15.2249C33.3345 15.3393 33.2033 15.5178 33.1569 15.7604C33.1105 16.0029 33.1725 16.2767 33.3429 16.5816L34.0396 17.8273C34.3335 18.353 34.3973 18.8301 34.2309 19.2587C34.0646 19.6875 33.7167 20.042 33.1872 20.3223C32.6255 20.6197 32.1308 20.6365 31.7031 20.3726C31.2754 20.1085 30.8673 19.6295 30.4794 18.9357Z" fill="#0F244D"/>
<path id="path1274" d="M42.7647 10.839C42.4273 9.60121 42.4974 8.48116 42.9749 7.4788C43.4524 6.47643 44.1905 5.84626 45.1891 5.58846C45.9143 5.40131 46.6003 5.49054 47.2471 5.856C47.9058 6.21845 48.4378 6.79303 48.8432 7.57989C49.0273 7.9286 49.2266 8.49627 49.441 9.28289L45.0899 10.4061C45.1908 10.7762 45.2682 11.0596 45.3218 11.2563C45.3873 11.4498 45.4666 11.6708 45.5597 11.9192C45.6648 12.1645 45.777 12.3893 45.8964 12.5937C46.12 12.9942 46.4211 13.2818 46.7995 13.4565C47.178 13.6312 47.5633 13.6679 47.9556 13.5666C48.2528 13.4899 48.5058 13.3442 48.7144 13.1294C48.9349 12.9115 49.0894 12.6611 49.1777 12.3783C49.2779 12.0924 49.3422 11.791 49.3703 11.4742C49.3983 11.1574 49.3832 10.8456 49.3253 10.5386L49.789 10.419C49.8409 10.7027 49.8675 10.9868 49.8687 11.2713C49.8687 11.5558 49.8283 11.851 49.7475 12.1569C49.6655 12.4629 49.5518 12.7461 49.4065 13.0065C49.2612 13.2669 49.0453 13.5021 48.759 13.7122C48.4727 13.9223 48.1334 14.078 47.7411 14.1793C46.6236 14.4677 45.5947 14.2875 44.6544 13.6387C43.7259 12.9869 43.0958 12.0537 42.7647 10.839ZM44.9574 9.92014L47.24 9.33099C46.9057 8.10476 46.5765 7.22389 46.2524 6.68843C45.9401 6.14995 45.5641 5.93746 45.1242 6.05099C44.6844 6.16453 44.4601 6.532 44.4513 7.15337C44.4563 7.77163 44.625 8.69392 44.9574 9.92014Z" fill="#0F244D"/>
<path id="path1276" d="M52.0798 8.68656C52.0241 7.86255 52.1332 7.10594 52.407 6.41673C52.6808 5.72753 53.1047 5.16061 53.6786 4.71605C54.2525 4.27149 54.9139 4.02523 55.6625 3.97725C56.1043 3.94909 56.508 3.99514 56.8736 4.11552C57.2393 4.23599 57.5283 4.40938 57.7408 4.63567C57.9656 4.86113 58.1429 5.11367 58.2728 5.39323C58.4018 5.66079 58.476 5.93794 58.4954 6.22459C58.5243 6.65448 58.4149 7.03929 58.1668 7.37906C57.9178 7.70684 57.6032 7.88293 57.2227 7.90731C56.9404 7.92527 56.7018 7.8626 56.5072 7.71925C56.3118 7.56386 56.2049 7.34882 56.1863 7.07417C56.1638 6.73979 56.3388 6.41069 56.7112 6.08695C56.9895 5.82924 57.1203 5.57495 57.1034 5.32414C57.0864 5.07338 56.979 4.85242 56.7812 4.66119C56.5825 4.45802 56.2684 4.3702 55.8389 4.39773C54.722 4.46926 54.2545 5.84854 54.4363 8.53558C54.4652 8.96548 54.4871 9.28792 54.5021 9.50289C54.528 9.70514 54.563 9.94878 54.607 10.2338C54.6632 10.518 54.7296 10.7716 54.8063 10.9946C54.9467 11.4294 55.1853 11.7679 55.5222 12.0102C55.8591 12.2525 56.2302 12.3607 56.6351 12.3348C56.9419 12.3148 57.2188 12.2192 57.4661 12.0476C57.7256 11.8751 57.9268 11.6583 58.0694 11.3973C58.2242 11.1355 58.3467 10.8519 58.4369 10.5462C58.5272 10.2406 58.5741 9.93164 58.5776 9.61955L59.0562 9.58896C59.0513 9.87716 59.0212 10.161 58.966 10.4403C58.9109 10.7197 58.8129 11.0019 58.6719 11.2868C58.531 11.5717 58.3635 11.8283 58.1693 12.0566C57.9753 12.285 57.717 12.4754 57.3945 12.628C57.072 12.7806 56.7083 12.8699 56.3033 12.8958C55.1496 12.9697 54.1754 12.6004 53.3809 11.7877C52.5986 10.9743 52.1647 9.94051 52.0798 8.68656Z" fill="#0F244D"/>
<path id="path1278" d="M61.3902 7.56767L61.9237 4.04956L69.2535 4.88181L68.9401 8.42499L68.4269 8.36666C68.408 7.90661 68.3033 7.33441 68.1128 6.65006C68.001 6.23974 67.834 5.87741 67.6117 5.56299C67.4015 5.24997 67.162 5.07818 66.8933 5.04763C66.7711 5.03355 66.6895 5.0423 66.6486 5.07386C66.6077 5.10543 66.5801 5.18062 66.5658 5.29944L65.7233 12.3249C65.7103 12.4319 65.7194 12.5112 65.7503 12.5629C65.7948 12.6042 65.8719 12.6311 65.9821 12.6435L67.0084 12.7601L66.9567 13.188L62.1921 12.647L62.2439 12.219L63.27 12.3356C63.38 12.3482 63.4553 12.3387 63.4963 12.3071C63.5509 12.2654 63.5847 12.1909 63.5975 12.0836L64.44 5.05813C64.4545 4.93925 64.4454 4.85992 64.413 4.8201C64.3805 4.78028 64.3033 4.75338 64.1812 4.73954C63.9124 4.70895 63.6326 4.82175 63.3418 5.07795C63.0633 5.33551 62.8211 5.65145 62.6152 6.0257C62.4574 6.30905 62.3194 6.58253 62.2011 6.84621C62.0828 7.10994 62.0036 7.30585 61.9635 7.43385L61.9036 7.62573L61.3902 7.56767Z" fill="#0F244D"/>
<path id="path1280" d="M74.7663 7.5209C74.376 8.06384 73.9527 9.01191 73.4963 10.3651C73.04 11.7183 72.8039 12.7261 72.7876 13.3885C72.7712 14.0509 73.02 14.4642 73.5344 14.6284C74.0486 14.7927 74.5009 14.6032 74.8911 14.0603C75.2813 13.5173 75.7045 12.5692 76.1609 11.2159C76.6172 9.86274 76.8535 8.85496 76.8698 8.19256C76.8862 7.53016 76.6373 7.11682 76.1229 6.95264C75.6087 6.78846 75.1565 6.9779 74.7663 7.5209ZM70.9755 11.4495C70.957 10.8516 71.0494 10.2513 71.2527 9.64864C71.4559 9.04597 71.7451 8.51485 72.1202 8.05519C72.4991 7.58416 72.9135 7.21889 73.3635 6.95949C73.8172 6.68872 74.2967 6.51438 74.8019 6.4364C75.3072 6.35841 75.7936 6.394 76.261 6.54327C76.7285 6.69255 77.142 6.94425 77.5016 7.29834C77.8611 7.65249 78.1412 8.06943 78.3418 8.5492C78.5463 9.01756 78.6578 9.55069 78.6763 10.1486C78.6987 10.7351 78.6082 11.3298 78.4047 11.9324C78.2015 12.5351 77.9104 13.072 77.5315 13.543C77.1564 14.0027 76.7418 14.3678 76.2881 14.6386C75.8381 14.898 75.3607 15.0667 74.8555 15.1448C74.3502 15.2227 73.8638 15.1871 73.3964 15.0378C72.9289 14.8885 72.5154 14.6369 72.1559 14.2827C71.7963 13.9286 71.5144 13.5173 71.3099 13.0489C71.1092 12.5692 70.9977 12.0361 70.9755 11.4495Z" fill="#0F244D"/>
<path id="path1282" d="M81.6369 17.5095C81.5819 17.6031 81.5582 17.6795 81.5658 17.7389C81.5902 17.7938 81.6505 17.848 81.7465 17.9015L82.3553 18.24C82.697 18.43 83.0479 18.4116 83.4079 18.1846C83.768 17.9575 84.0883 17.6049 84.369 17.1269C84.6498 16.649 84.7902 16.2171 84.7903 15.8311C84.7903 15.4451 84.6195 15.1571 84.2778 14.967L83.4129 14.486L81.6369 17.5095ZM83.6695 14.0495L84.4222 14.4682C84.9988 14.7889 85.5771 14.4557 86.1569 13.4686C86.4316 13.001 86.5619 12.598 86.5482 12.2595C86.5432 11.927 86.4083 11.6865 86.1434 11.5381L85.6468 11.2618C85.5508 11.2084 85.4691 11.1906 85.4019 11.2087C85.3516 11.2223 85.299 11.2757 85.244 11.369L83.6695 14.0495ZM78.5478 16.6184L78.7675 16.2445L79.376 16.583C79.4722 16.6364 79.5455 16.6563 79.5959 16.6427C79.663 16.6247 79.7241 16.5691 79.779 16.4757L83.386 10.335C83.4409 10.2414 83.4562 10.1673 83.4317 10.1123C83.4242 10.0529 83.3724 9.9965 83.2762 9.94304L82.6674 9.60445L82.8871 9.23047L86.7474 11.3774C87.4628 11.7753 87.9371 12.246 88.1705 12.7893C88.4145 13.3386 88.3718 13.8938 88.0422 14.4549C87.7675 14.9224 87.3608 15.1925 86.8223 15.2652C86.3006 15.3335 85.7354 15.2465 85.1267 15.0044L85.09 15.0671C85.7963 15.5289 86.2677 16.0529 86.5041 16.6393C86.7405 17.2257 86.6847 17.8151 86.3367 18.4073C86.0133 18.958 85.5206 19.2905 84.8584 19.4047C84.1964 19.5189 83.5396 19.395 82.8882 19.0327L78.5478 16.6184Z" fill="#0F244D"/>
<path id="path1284" d="M93.5753 17.4743C92.998 17.8258 92.2277 18.5375 91.2642 19.6096C90.3007 20.6817 89.6785 21.5195 89.3975 22.1231C89.1165 22.7266 89.1798 23.2017 89.5872 23.5484C89.9946 23.8951 90.4868 23.8926 91.0641 23.5411C91.6413 23.1897 92.4117 22.4779 93.3752 21.4058C94.3386 20.3337 94.961 19.4958 95.242 18.8923C95.5229 18.2887 95.4596 17.8137 95.0523 17.467C94.6449 17.1204 94.1526 17.1228 93.5753 17.4743ZM88.5083 19.6493C88.7314 19.0919 89.0575 18.5745 89.4865 18.0969C89.9157 17.6194 90.3952 17.2404 90.925 16.96C91.4629 16.6705 91.9912 16.4919 92.5095 16.4242C93.0359 16.3474 93.5473 16.3694 94.0437 16.4898C94.5401 16.6101 94.9734 16.8277 95.3438 17.1429C95.7141 17.458 95.9937 17.8469 96.1824 18.3096C96.3712 18.7723 96.4616 19.2626 96.4536 19.7804C96.4538 20.2893 96.3423 20.8225 96.1192 21.3799C95.9042 21.9282 95.5821 22.4412 95.153 22.9187C94.7239 23.3962 94.2402 23.7797 93.7023 24.0692C93.1725 24.3497 92.6444 24.5283 92.118 24.605C91.5997 24.6727 91.0923 24.6464 90.5959 24.526C90.0995 24.4057 89.6661 24.188 89.2957 23.8729C88.9254 23.5577 88.6458 23.1688 88.4571 22.7061C88.2683 22.2434 88.174 21.7577 88.1738 21.2488C88.1818 20.7309 88.2933 20.1976 88.5083 19.6493Z" fill="#0F244D"/>
<path id="path1286" d="M93.3683 27.3105L93.716 27.0439L94.1499 27.5797C94.2184 27.6643 94.2786 27.7096 94.3304 27.7156C94.3995 27.7234 94.4776 27.694 94.5646 27.6275L100.274 23.2501C100.361 23.1834 100.404 23.1201 100.402 23.0603C100.418 23.0025 100.392 22.9312 100.323 22.8466L99.8894 22.3108L100.237 22.0442L104.348 27.1206L101.547 29.405L101.227 29.0102C101.525 28.7208 101.849 28.2596 102.197 27.6266C102.409 27.2505 102.542 26.844 102.595 26.407C102.656 25.9794 102.573 25.6246 102.344 25.3426L102.013 24.9336C101.945 24.849 101.876 24.8027 101.807 24.7948C101.755 24.789 101.686 24.8193 101.599 24.8858L95.889 29.2633C95.802 29.3299 95.7507 29.3922 95.7349 29.45C95.7349 29.5099 95.7698 29.5821 95.8398 29.6667L96.2737 30.2025L95.9259 30.4692L93.3683 27.3105Z" fill="#0F244D"/>
<path id="path1288" d="M106.216 32.4637C105.547 32.5863 104.563 32.976 103.264 33.6328C101.965 34.2895 101.072 34.8491 100.584 35.3116C100.097 35.774 99.9776 36.2388 100.227 36.706C100.477 37.1733 100.936 37.3457 101.605 37.2231C102.275 37.1005 103.258 36.7108 104.557 36.054C105.856 35.3973 106.749 34.8377 107.237 34.3753C107.724 33.9129 107.843 33.448 107.594 32.9808C107.344 32.5135 106.885 32.3411 106.216 32.4637ZM100.683 32.6925C101.099 32.2525 101.597 31.8863 102.175 31.5939C102.753 31.3013 103.342 31.1184 103.94 31.0451C104.55 30.9662 105.108 30.987 105.616 31.1077C106.135 31.2229 106.603 31.4246 107.021 31.7126C107.438 32.0007 107.76 32.3571 107.987 32.7819C108.214 33.2067 108.328 33.668 108.331 34.1658C108.336 34.6636 108.236 35.1522 108.033 35.6317C107.842 36.1056 107.539 36.5625 107.122 37.0025C106.717 37.4369 106.225 37.8004 105.646 38.0928C105.068 38.3854 104.474 38.571 103.865 38.6499C103.266 38.7232 102.707 38.7024 102.188 38.5873C101.68 38.4665 101.218 38.2621 100.801 37.9741C100.383 37.686 100.061 37.3296 99.8343 36.9048C99.6074 36.48 99.4928 36.0187 99.4903 35.5209C99.4854 35.0231 99.5792 34.5372 99.7722 34.0633C99.9735 33.5838 100.277 33.1269 100.683 32.6925Z" fill="#0F244D"/>
<path id="path1290" d="M106.108 45.6292L106.184 46.0901C105.019 46.2719 104.469 46.5638 104.535 46.9655C104.578 47.2255 104.763 47.3299 105.091 47.2787L106.202 47.1054C106.894 46.9974 107.428 47.0961 107.802 47.4013C108.188 47.7047 108.488 48.167 108.703 48.788L108.794 48.7742C108.804 47.1726 109.374 46.2837 110.503 46.1075C111.183 46.0014 111.77 46.1948 112.262 46.6878C112.766 47.1788 113.095 47.891 113.249 48.8246L113.924 52.9192L113.487 52.9877L113.393 52.4204C113.376 52.3141 113.339 52.2411 113.282 52.2014C113.24 52.1718 113.164 52.1655 113.055 52.1825L105.878 53.3021C105.768 53.3191 105.692 53.3491 105.65 53.3922C105.621 53.4451 105.616 53.5248 105.633 53.6312L105.744 54.3047L105.307 54.3732L104.653 50.4027L105.09 50.3342L105.201 51.0078C105.218 51.1142 105.248 51.1822 105.291 51.212C105.347 51.2518 105.43 51.2632 105.539 51.2462L108.964 50.712L108.85 50.0207C108.719 49.2289 108.229 48.8993 107.379 49.0319L105.995 49.2479C105.388 49.3427 104.904 49.2424 104.544 48.947C104.184 48.6517 103.956 48.2145 103.861 47.6354C103.761 47.0328 103.911 46.5791 104.309 46.2746C104.707 45.97 105.307 45.7553 106.109 45.6302L106.108 45.6292ZM112.853 49.1406C112.722 48.3488 112.056 48.0467 110.854 48.2343C109.652 48.4218 109.116 48.9115 109.246 49.7032L109.401 50.6427L112.716 50.1255C112.826 50.1085 112.894 50.0735 112.923 50.0205C112.964 49.9656 112.976 49.8851 112.958 49.7787L112.853 49.1406Z" fill="#0F244D"/>
<path id="path1292" d="M106.203 56.2565C106.49 56.1081 106.818 56.0385 107.187 56.0477C107.556 56.0569 107.866 56.1783 108.119 56.4121C108.371 56.6578 108.492 56.9422 108.484 57.2652C108.476 57.5523 108.384 57.7835 108.207 57.9587C108.03 58.1339 107.825 58.2185 107.591 58.2127C107.235 58.2039 106.962 58.0355 106.774 57.7075C106.609 57.4519 106.44 57.3221 106.268 57.3178C105.973 57.3105 105.754 57.4366 105.612 57.6964C105.47 57.9563 105.393 58.2896 105.382 58.6964C105.372 59.1032 105.554 59.419 105.93 59.6439C106.317 59.869 106.868 59.9905 107.581 60.0082C108.823 60.0393 109.454 59.6779 109.474 58.924L109.516 57.2909L110.033 57.3041L109.99 58.9192C109.985 59.0628 110.006 59.195 110.054 59.3159C110.1 59.4367 110.177 59.5285 110.286 59.591C110.395 59.6656 110.504 59.7221 110.614 59.7608C110.723 59.8114 110.858 59.8447 111.017 59.8606C111.177 59.8888 111.312 59.9041 111.422 59.9065C111.533 59.9211 111.674 59.9305 111.846 59.9349C113.051 59.965 113.662 59.6391 113.68 58.9571C113.689 58.6101 113.538 58.2831 113.226 57.976C112.927 57.6692 112.552 57.4204 112.102 57.2296C111.652 57.0388 111.17 56.8892 110.656 56.7806L110.667 56.3498L114.079 56.4349L114.068 56.8656L113.621 56.9981C113.485 57.0428 113.415 57.1129 113.413 57.2085C113.413 57.2802 113.471 57.3954 113.588 57.554C113.956 58.078 114.131 58.651 114.115 59.2732C114.092 60.1585 113.864 60.8412 113.434 61.3213C113.003 61.8014 112.468 62.0336 111.828 62.0176C111.361 62.006 110.941 61.816 110.57 61.4476C110.198 61.0792 109.958 60.6182 109.85 60.0648H109.739C109.379 61.5882 108.572 62.3343 107.318 62.3031C106.568 62.2846 105.974 61.9466 105.536 61.289C105.11 60.6319 104.912 59.741 104.942 58.6164C104.95 58.2933 105.001 57.9774 105.096 57.6684C105.19 57.3714 105.326 57.0995 105.505 56.8525C105.683 56.6056 105.916 56.4079 106.203 56.2594L106.203 56.2565Z" fill="#0F244D"/>
<path id="path1294" d="M103.334 70.3526L103.762 70.4616L103.613 71.0174C103.585 71.1216 103.585 71.1955 103.613 71.2393C103.648 71.2978 103.719 71.3406 103.826 71.3679L110.859 73.1571C110.966 73.1843 111.043 73.1792 111.091 73.1418C111.148 73.119 111.191 73.0556 111.219 72.9516L111.368 72.3958L111.796 72.5048L110.779 76.2911L110.351 76.1822L110.528 75.5222C110.556 75.418 110.553 75.3366 110.518 75.2781C110.491 75.2344 110.424 75.1989 110.317 75.1716L103.285 73.3823C103.178 73.3552 103.096 73.3527 103.039 73.3751C102.991 73.4124 102.953 73.4832 102.925 73.5873L102.747 74.2472L102.319 74.1383L103.334 70.3526ZM105.135 63.6484L105.564 63.7574L105.386 64.4174C105.358 64.5216 105.358 64.5956 105.386 64.6395C105.421 64.6979 105.492 64.7407 105.599 64.768L112.632 66.5571C112.739 66.5843 112.817 66.5792 112.865 66.5418C112.922 66.519 112.964 66.4557 112.992 66.3516L113.169 65.6917L113.598 65.8006L112.562 69.6564L112.133 69.5474L112.292 68.9569C112.323 68.8411 112.315 68.7525 112.268 68.6911C112.221 68.6296 112.12 68.5792 111.966 68.5398L108.949 67.7723L108.548 69.2661C108.355 69.984 107.974 70.5242 107.407 70.8869C106.839 71.2496 106.233 71.3492 105.591 71.1858C104.948 71.0223 104.465 70.6457 104.14 70.0559C103.816 69.4661 103.75 68.8123 103.943 68.0944L105.135 63.6484ZM105.056 66.7827C104.949 66.7555 104.867 66.7531 104.81 66.7754C104.761 66.8128 104.723 66.8835 104.695 66.9875L104.565 67.4738C104.465 67.8443 104.569 68.1677 104.876 68.4438C105.183 68.7199 105.611 68.9275 106.158 69.0668C106.705 69.206 107.177 69.2269 107.571 69.1294C107.966 69.032 108.213 68.7979 108.313 68.4274L108.518 67.6632L105.056 66.7827Z" fill="#0F244D"/>
<path id="path1296" d="M101.671 75.4751L102.059 75.6816L101.723 76.2803C101.67 76.3749 101.651 76.4465 101.666 76.4952C101.685 76.5602 101.743 76.6185 101.841 76.6701L108.22 80.0603C108.317 80.1119 108.394 80.1253 108.45 80.1003C108.511 80.0916 108.568 80.04 108.621 79.9457L108.957 79.3469L109.346 79.5535L107.418 82.9882L107.029 82.7817L107.312 82.2775C107.365 82.1829 107.382 82.1032 107.362 82.0383C107.347 81.9895 107.291 81.9393 107.194 81.8877L104.312 80.3561L103.755 81.3487C103.631 81.5693 103.626 81.778 103.74 81.9748C103.854 82.1716 104.051 82.3446 104.332 82.4938L105.433 83.0789C105.973 83.3657 106.312 83.7231 106.45 84.1511C106.582 84.5895 106.539 85.0031 106.321 85.3918C106.109 85.7699 105.827 86.0091 105.477 86.1092C105.126 86.2093 104.762 86.159 104.385 85.9582C104.093 85.8033 103.904 85.5663 103.817 85.2472C103.729 84.9282 103.751 84.6531 103.88 84.422C104.01 84.1909 104.189 84.0338 104.418 83.9509C104.647 83.8679 104.874 83.8866 105.101 84.007C105.241 84.0815 105.363 84.2144 105.466 84.4055C105.538 84.5526 105.611 84.6463 105.687 84.6865C105.784 84.7381 105.862 84.7113 105.921 84.6062C106.003 84.4592 105.993 84.2902 105.89 84.0991C105.787 83.908 105.558 83.7178 105.201 83.5285L104.084 82.9347C103.825 82.7971 103.638 82.6566 103.522 82.5133C103.406 82.37 103.339 82.1909 103.319 81.976L103.238 81.9329C102.856 82.439 102.426 82.7558 101.948 82.8836C101.464 83.0219 100.898 82.9189 100.25 82.5748L99.1978 82.0154C98.9063 81.8606 98.6959 81.8987 98.5662 82.1298C98.3658 82.4869 98.7836 82.9409 99.8198 83.4915L99.5899 83.9012C98.8775 83.5226 98.386 83.1249 98.1153 82.7084C97.8446 82.2918 97.8595 81.8156 98.1601 81.2799C98.449 80.7652 98.8138 80.4273 99.2546 80.2661C99.6954 80.1049 100.186 80.1677 100.726 80.4545L102.005 81.1344C102.318 81.3007 102.599 81.3614 102.848 81.3167C103.098 81.272 103.281 81.1446 103.399 80.9344L103.859 80.1151L100.815 78.4975C100.718 78.4459 100.639 78.4243 100.578 78.4327C100.522 78.4575 100.467 78.5171 100.414 78.6117L100.131 79.1159L99.7427 78.9093L101.671 75.4751Z" fill="#0F244D"/>
<path id="path1298" d="M96.9137 86.7489C96.4563 86.367 96.0669 86.1838 95.7453 86.1993C95.4238 86.2148 95.1711 86.327 94.9869 86.5357C94.6746 86.89 94.6356 87.3384 94.8701 87.8812L97.6423 90.1958L98.035 89.1991C98.3329 88.4385 97.9591 87.6218 96.9137 86.7489ZM98.2534 84.9816C98.5148 85.1998 98.7135 85.4524 98.8494 85.7393C98.9853 86.0262 99.0685 86.3087 99.099 86.5865C99.1295 86.8643 99.114 87.1667 99.0526 87.4938C99.0004 87.8287 98.9315 88.1182 98.8459 88.3622C98.7698 88.614 98.6696 88.893 98.5453 89.1993L98.0204 90.5115L98.9726 91.3064C99.4486 91.7039 99.8781 91.8969 100.261 91.8854C100.644 91.8737 100.967 91.7181 101.232 91.4186C101.448 91.1734 101.58 90.9047 101.626 90.6127C101.683 90.3284 101.608 90.1005 101.403 89.9291C101.235 89.7888 101.035 89.7484 100.804 89.808C100.608 89.865 100.435 89.8864 100.286 89.8721C100.146 89.8653 99.9966 89.7958 99.8379 89.6635C99.6046 89.4687 99.4952 89.2434 99.51 88.9876C99.525 88.7319 99.6205 88.5042 99.7966 88.3043C100.005 88.0682 100.264 87.93 100.575 87.89C100.887 87.8667 101.197 87.9837 101.506 88.2409C101.86 88.5371 102.081 88.9111 102.169 89.3629C102.258 89.8315 102.228 90.2793 102.078 90.7064C101.938 91.1412 101.724 91.5221 101.436 91.849C101.227 92.0852 101.004 92.2928 100.765 92.4718C100.526 92.6508 100.254 92.8026 99.9501 92.927C99.6459 93.0515 99.3378 93.1253 99.0256 93.1485C98.7134 93.1718 98.3825 93.1243 98.033 93.0059C97.6836 92.8876 97.3456 92.6921 97.0189 92.4193L93.4765 89.4616C93.1404 89.1811 92.8923 89.1316 92.7321 89.3132C92.5879 89.4767 92.6199 89.7163 92.8279 90.0319C93.0358 90.3474 93.3219 90.6571 93.6859 90.961L93.3495 91.3426C92.6681 90.7736 92.2567 90.2568 92.1155 89.792C92.0356 89.5517 92.0285 89.2934 92.0939 89.017C92.1514 88.7496 92.2802 88.5024 92.4805 88.2753C92.8089 87.9029 93.1178 87.672 93.4074 87.5825C93.6969 87.4931 94.0284 87.4931 94.4019 87.5825L94.4259 87.5556C94.2422 86.7714 94.4387 86.0524 95.0154 85.3984C95.1756 85.2167 95.3416 85.0559 95.5138 84.9158C95.686 84.7757 95.8816 84.655 96.1004 84.5539C96.3206 84.4696 96.5433 84.4191 96.7688 84.4023C96.9862 84.3945 97.225 84.4362 97.4851 84.5273C97.7452 84.6183 98.0012 84.769 98.2533 84.9794L98.2534 84.9816Z" fill="#0F244D"/>
</g>
</g>
<path id="path1340" fill-rule="evenodd" clip-rule="evenodd" d="M54.7087 79.1676C54.258 78.1094 53.4921 76.6713 52.963 75.8897C51.061 73.0797 47.9514 70.681 44.7725 69.5716L44.1966 69.3706L44.9323 68.3054C45.3661 67.6772 45.7353 67.0319 45.832 66.7328C46.0787 65.9695 46.9979 64.942 47.7547 64.5835C48.0222 64.4568 48.0604 64.4605 48.3634 64.6427C48.5499 64.7549 48.7928 64.8253 48.9374 64.8091C49.1533 64.785 49.1919 64.7372 49.2153 64.4647C49.2373 64.2095 49.1805 64.0759 48.9213 63.7741C48.6285 63.433 48.6001 63.3513 48.6001 62.8488C48.6001 62.5457 48.6411 61.8063 48.6912 61.2056C48.7413 60.6049 48.822 57.8559 48.8705 55.0966C48.9613 49.9235 49.0023 49.3161 49.3665 47.7469C49.6186 46.6605 49.8294 45.1069 49.9579 43.3893C50.0684 41.9113 50.1928 40.9613 50.3842 40.1321C50.4803 39.7156 50.5303 39.0168 50.5385 37.9754C50.5497 36.5512 50.5666 36.403 50.7626 36.0142C50.8791 35.7829 51.137 35.4584 51.3355 35.293C51.8565 34.8591 52.3173 34.7869 53.4848 34.9563C54.3124 35.0764 54.6312 35.0797 55.9506 34.9816C58.8102 34.769 60.3035 35.0992 61.0298 36.1048C61.2607 36.4245 61.3051 36.5828 61.3558 37.267C61.3993 37.8531 61.4577 38.1054 61.5803 38.2373C61.8104 38.4847 61.9293 38.4624 62.2734 38.1074C62.4376 37.938 62.6444 37.7993 62.7328 37.7993C62.9723 37.7993 63.5812 38.3744 63.7935 38.801C64.0552 39.3271 64.0328 39.6099 63.7042 39.9297C63.4551 40.172 63.3861 40.1938 62.9865 40.1565C61.9443 40.059 60.7906 39.1548 60.0885 37.8852C59.4053 36.6499 59.2639 36.5489 58.8367 36.9914C58.5611 37.2769 57.3253 37.6237 56.5872 37.6226C55.999 37.6218 54.7611 37.3232 54.2011 37.0471C53.9485 36.9225 53.6333 36.8329 53.5006 36.8478C53.1353 36.8889 53.1244 37.2793 53.4751 37.7546C53.8588 38.2744 53.9595 38.8024 53.8841 39.8978L53.8211 40.8139L53.3704 40.762C52.4743 40.6587 52.364 41.0067 52.9483 42.0929C53.417 42.9639 53.4935 43.4254 53.2143 43.6971C53.0558 43.8513 52.9457 43.8828 52.6998 43.8439C52.3275 43.7851 51.9943 43.8917 51.9141 44.0952C51.8822 44.1761 51.9343 44.4144 52.0299 44.6247C52.2659 45.1439 52.5967 45.2316 54.2996 45.2267C55.7167 45.2226 56.9544 45.1115 58.7326 44.8287C60.9562 44.475 62.4122 44.6008 63.123 45.2081C63.5249 45.5515 63.6231 45.8827 63.6033 46.8269C63.5878 47.5646 63.6074 47.657 63.9094 48.2751C64.2553 48.9832 64.5561 50.1223 64.5053 50.5326L64.4742 50.784L64.2847 50.4319C64.1804 50.2382 64.0058 49.8154 63.8967 49.4924C63.6495 48.7608 63.1508 48.1883 62.4993 47.8884C62.2176 47.7588 61.5021 47.5777 60.761 47.4487C59.1654 47.1707 58.9593 47.1491 56.8779 47.0404C54.9399 46.9392 53.5776 46.7544 52.8694 46.4967C52.2842 46.2837 51.9739 46.337 51.8893 46.665C51.838 46.8641 51.8821 46.9459 52.1728 47.1905C52.6073 47.5559 53.6706 47.9581 54.6637 48.1326C55.0854 48.2068 56.265 48.3114 57.2851 48.3652C59.079 48.4598 59.4896 48.4981 61.0395 48.7155C61.4376 48.7713 61.8915 48.8347 62.0482 48.8565C62.2693 48.8871 62.3235 48.9316 62.2904 49.055C62.2669 49.1425 62.3908 49.4682 62.5658 49.779C63.0943 50.7174 63.5281 52.5635 63.526 53.8651C63.5245 54.8386 63.4901 54.9218 63.0179 55.0973C62.7964 55.1796 62.5511 55.3421 62.4728 55.4584C62.3429 55.6514 62.3435 55.6891 62.4792 55.8907C62.561 56.0122 62.8526 56.2567 63.1273 56.4342C63.6194 56.7521 63.6291 56.7543 63.7971 56.5874C64.2267 56.1608 65.1214 54.0505 65.0273 53.6857C64.9948 53.5597 65.0554 53.3872 65.1999 53.1942C65.5417 52.7378 65.6235 52.5105 65.6978 51.8118C65.7355 51.4572 65.8098 51.1248 65.8629 51.0732C65.916 51.0215 66.1662 50.9599 66.4189 50.9363C66.6717 50.9126 66.9045 50.8524 66.9362 50.8024C67.038 50.6422 66.6029 50.3879 66.2271 50.3879C65.5954 50.3879 65.2001 49.7261 64.9294 48.2156C64.6903 46.8813 64.8192 45.1765 65.2023 44.6076C65.5906 44.031 66.5101 43.6842 66.7878 44.0097C66.8526 44.0857 66.9361 44.5474 66.9768 45.0548C67.1045 46.6472 67.276 47.114 68.0488 47.9733C68.4733 48.4453 68.5032 48.5096 68.5032 48.9507C68.5032 49.2514 68.6199 49.7743 68.8249 50.3912C69.4279 52.2061 69.5519 53.179 69.231 53.576C68.9607 53.9103 68.6877 54.9905 68.6015 56.0659L68.524 57.0343L67.6481 58.7919C66.6429 60.8091 66.2232 61.459 65.1752 62.6213C63.7183 64.2372 63.318 64.8569 63.3004 65.5234C63.2945 65.7446 63.242 66.0111 63.1835 66.1157C63.1251 66.2204 62.7002 66.5721 62.2393 66.8974C61.7785 67.2227 61.1571 67.7181 60.8586 67.9982C60.2318 68.5864 59.9317 68.6932 58.8682 68.7068C57.9429 68.7186 57.7134 68.7839 57.6121 69.0641C57.5012 69.3711 57.616 69.7635 57.833 69.8187C58.2484 69.9245 58.1434 70.6153 57.5054 71.9743C57.2847 72.4446 57.1041 72.884 57.1041 72.9509C57.1041 73.1861 56.7429 74.0904 56.345 74.8512C55.7433 76.0017 55.4521 77.1984 55.6504 77.7059C55.7172 77.8768 55.7174 78.0748 55.6511 78.3643C55.4913 79.0627 55.1904 79.9666 55.1179 79.9666C55.08 79.9666 54.8959 79.607 54.7087 79.1676ZM56.503 67.59C57.7491 67.2759 58.5516 66.6905 58.5516 66.0958C58.5516 65.5754 58.4823 65.5872 56.5095 66.4435C56.1078 66.6178 55.5582 66.8008 55.2882 66.8501C54.848 66.9305 54.571 67.1069 54.571 67.3068C54.571 67.346 54.6524 67.4573 54.7519 67.5541C54.9803 67.7763 55.705 67.7912 56.503 67.59ZM58.1878 61.9211C58.2797 61.8732 58.4241 61.6579 58.5086 61.4425C58.6862 60.99 58.791 60.9298 59.2017 61.0444C59.8604 61.2282 59.8495 61.4184 59.3671 58.1457C59.3158 57.7972 59.1959 57.4543 59.051 57.2413C58.9227 57.0525 58.7926 56.7703 58.762 56.6141C58.686 56.2256 58.416 55.7114 58.0104 55.1826C57.2341 54.1703 57.0985 53.5624 57.5901 53.2985C57.7452 53.2153 57.8911 53.0356 57.952 52.8529C58.2298 52.0193 59.4046 52.3127 59.9412 53.3497C60.1845 53.82 60.2119 54.2888 60.0441 55.1115C59.5634 57.4688 60.4426 59.7714 61.6966 59.4396C62.0597 59.3435 62.5377 58.7341 62.7688 58.0725C63.0133 57.3726 62.8585 57.3157 62.2107 57.8672C61.9211 58.1139 61.5836 58.3402 61.4609 58.3702C60.766 58.5399 60.5388 57.6096 60.9087 56.11C61.0103 55.6984 61.1175 55.0586 61.147 54.6882C61.2326 53.6132 60.8705 50.9272 60.6197 50.7764C60.5706 50.7469 60.4602 50.7847 60.3742 50.8604C60.1209 51.0835 59.32 51.2067 58.5489 51.1412C57.5998 51.0607 57.0562 50.9091 56.3618 50.5312C55.6378 50.1372 55.1896 50.1054 54.9694 50.4324C54.7453 50.7652 54.926 51.0785 55.7801 51.8381L56.5118 52.489L56.3002 52.957C56.1838 53.2144 56.0477 53.5845 55.9977 53.7794C55.7957 54.567 56.3353 55.7887 56.9368 55.9057C57.272 55.971 57.4809 56.3652 57.688 57.3232C57.9635 58.5977 57.9651 59.2358 57.6952 60.2493C57.4044 61.3412 57.3841 61.7321 57.6099 61.8928C57.8036 62.0306 57.9626 62.0384 58.1878 61.9211Z" fill="#F5D999"/>
<path id="path1342" fill-rule="evenodd" clip-rule="evenodd" d="M52.216 105.505C46.6373 104.978 41.2459 104.133 39.3366 103.487C38.0434 103.049 33.6493 102.009 32.5424 101.878C32.0376 101.818 31.6246 101.716 31.6246 101.65C31.6246 101.585 31.8023 100.594 32.0194 99.4483C32.2365 98.3025 32.5572 96.4015 32.732 95.2239C33.2663 91.6237 33.5032 91.4813 37.7042 92.2352C42.6841 93.1289 48.5066 93.6828 57.4037 94.109C61.9952 94.329 74.8479 93.2894 80.6901 92.2255C83.2643 91.7567 83.964 91.7488 84.53 92.182C85.1219 92.6351 85.2028 92.8997 85.6602 95.8808C85.88 97.3135 86.1965 99.2121 86.3635 100.1C86.5305 100.988 86.6504 101.73 86.63 101.751C86.6096 101.771 86.0232 101.864 85.3268 101.957C84.0641 102.127 81.1259 102.832 78.5537 103.583C76.7177 104.118 73.7332 104.639 69.6149 105.142C66.5035 105.522 65.6015 105.565 59.9577 105.605C56.5338 105.629 53.05 105.584 52.216 105.505ZM48.5215 103.9C49.3159 103.5 49.5628 102.508 49.0544 101.758C48.7899 101.367 48.7832 101.196 48.9663 99.5054C49.0754 98.499 49.1687 97.4916 49.1738 97.2666C49.1801 96.9928 49.2887 96.8307 49.5024 96.7763C49.7454 96.7145 49.8216 96.5645 49.8216 96.1481V95.6011L48.9038 95.5065C48.399 95.4545 47.7884 95.3813 47.547 95.3439C47.1317 95.2795 47.108 95.3084 47.108 95.8767C47.108 96.2285 47.1946 96.5098 47.317 96.5555C47.4887 96.6197 47.4862 97.0163 47.303 98.7855C47.1804 99.969 47.0623 100.955 47.0406 100.976C47.019 100.998 46.4506 100.97 45.7777 100.915L44.5541 100.814V100.35C44.5541 100.094 44.6391 99.0907 44.7431 98.1201C44.9074 96.5862 44.9701 96.3554 45.222 96.3554C45.4519 96.3554 45.5118 96.2316 45.5118 95.7562V95.1571L44.5307 95.0573C42.8562 94.887 42.8411 94.8908 42.768 95.5006C42.7201 95.8998 42.7702 96.0645 42.9575 96.1223C43.1865 96.193 43.1922 96.3847 43.0145 98.0256C42.9057 99.0291 42.8126 100.042 42.8075 100.277C42.8005 100.598 42.7186 100.704 42.479 100.704C42.0211 100.704 42.0144 101.718 42.4715 101.835C42.7483 101.905 42.7627 101.967 42.6004 102.386C42.3321 103.077 42.6346 103.656 43.2646 103.656C43.563 103.656 43.8238 103.536 43.9704 103.333L44.203 103.009L45.2963 103.472C46.9599 104.177 47.7606 104.283 48.5215 103.9ZM58.3444 102.789C58.526 102.328 58.4493 101.792 58.2018 101.792C57.9306 101.792 57.8885 100.798 58.0658 98.5811C58.1505 97.5234 58.2168 97.2994 58.4639 97.2365C58.6807 97.1814 58.7605 97.0168 58.7605 96.6251V96.0891L57.4478 96.0016C56.7258 95.9534 56.0794 95.9476 56.0112 95.9885C55.943 96.0295 55.8873 96.3036 55.8873 96.5975C55.8873 96.9691 55.9603 97.132 56.1267 97.132C56.3079 97.132 56.3662 97.3226 56.3662 97.9152V98.6983L55.1291 98.6529L53.892 98.6076L53.8438 97.7922C53.8065 97.1629 53.8482 96.9767 54.0262 96.9767C54.274 96.9767 54.4507 96.6563 54.4507 96.2068C54.4507 95.8743 53.8767 95.7341 52.5153 95.7341H51.5775V96.27C51.5775 96.6025 51.6756 96.8594 51.836 96.9467C52.0643 97.071 52.0809 97.3454 51.9777 99.2843C51.8694 101.319 51.8379 101.481 51.5499 101.481C51.2882 101.481 51.2468 101.573 51.2885 102.064L51.338 102.646L52.6012 102.692C53.9362 102.74 54.1242 102.655 54.129 102.003C54.1303 101.819 54.0237 101.629 53.892 101.58C53.7231 101.517 53.6526 101.261 53.6526 100.709V99.9279H54.9295H56.2065V100.764C56.2065 101.47 56.1567 101.613 55.8873 101.681C55.6438 101.743 55.568 101.893 55.568 102.313V102.864L56.4859 102.92C56.9907 102.95 57.5935 102.989 57.8256 103.005C58.0841 103.023 58.285 102.939 58.3444 102.789ZM62.2123 102.879H63.0703V102.258C63.0703 101.794 63.006 101.636 62.8176 101.636C62.449 101.636 62.5524 101.477 63.7885 100.141L64.9057 98.9341L65.0067 99.3922C65.0622 99.6441 65.1161 100.217 65.1265 100.666C65.1411 101.295 65.0908 101.481 64.906 101.481C64.7331 101.481 64.6665 101.654 64.6665 102.102V102.724H65.3626C65.7454 102.724 66.3882 102.68 66.7911 102.626C67.5114 102.53 67.5219 102.52 67.4249 102.043C67.3707 101.777 67.2301 101.489 67.1125 101.403C66.9664 101.297 66.8525 100.584 66.7532 99.1512C66.6319 97.4028 66.6453 97.0257 66.8343 96.8819C66.9589 96.7871 67.0609 96.49 67.0609 96.2218V95.7341H65.7041H64.3473V96.3554C64.3473 96.8041 64.4138 96.9767 64.5867 96.9767C64.7184 96.9767 64.8262 97.0241 64.8262 97.082C64.8262 97.14 64.2874 97.726 63.629 98.3844L62.4318 99.5815V99.0774C62.4318 98.8001 62.3861 98.249 62.3303 97.8526C62.2453 97.2488 62.2711 97.132 62.4899 97.132C62.6897 97.132 62.7511 96.9807 62.7511 96.4886V95.8452L61.7699 95.945C61.2303 95.9998 60.6197 96.0447 60.4131 96.0447C60.0832 96.0447 60.0375 96.1181 60.0375 96.6479C60.0375 97.1205 60.1066 97.2687 60.3567 97.3323C60.6299 97.4018 60.6761 97.5446 60.6769 98.3212C60.6774 98.8204 60.724 99.8055 60.7804 100.51C60.8706 101.637 60.8512 101.792 60.6198 101.792C60.418 101.792 60.3567 101.941 60.3567 102.432C60.3567 103.067 60.3614 103.072 60.8555 102.976C61.1299 102.923 61.7405 102.879 62.2123 102.879ZM72.2836 102.195C72.4215 102.072 72.0855 101.015 71.9085 101.015C71.7883 101.015 71.6899 100.94 71.6899 100.848C71.6899 100.585 73.8105 98.3552 73.9335 98.4885C73.9939 98.554 74.086 99.0825 74.1383 99.6629C74.2143 100.508 74.1865 100.736 73.9991 100.806C73.7571 100.896 73.6615 101.881 73.8848 101.984C73.9506 102.015 74.6018 101.976 75.3319 101.899C76.4003 101.786 76.6417 101.714 76.569 101.529C76.5193 101.403 76.4786 101.139 76.4786 100.943C76.4786 100.726 76.3628 100.556 76.1841 100.51C75.9395 100.448 75.8707 100.215 75.7782 99.1332C75.717 98.417 75.6238 97.4291 75.5711 96.9379C75.4894 96.1753 75.5137 96.0447 75.7376 96.0447C76.0272 96.0447 76.0423 95.9799 75.9066 95.3197L75.8134 94.8664L74.7493 94.9816C74.1641 95.045 73.5595 95.1004 73.4059 95.1048C72.9307 95.1184 73.0616 96.2102 73.5577 96.3709C73.6669 96.4063 73.2547 96.984 72.6 97.7131L71.4505 98.9932L71.3448 98.2567C71.1605 96.973 71.1885 96.5107 71.4505 96.5107C71.7031 96.5107 71.7502 96.2018 71.5876 95.6111C71.4982 95.2865 71.4244 95.2632 70.7517 95.3475C68.7236 95.6015 68.8167 95.5666 68.8167 96.0729C68.8167 96.4092 68.9061 96.5625 69.136 96.621C69.3116 96.6657 69.4567 96.7465 69.4584 96.8006C69.4601 96.8547 69.5649 97.8415 69.6912 98.9933C69.8921 100.826 69.8917 101.103 69.688 101.214C69.5519 101.289 69.4552 101.571 69.4552 101.895V102.45L70.8519 102.338C71.6201 102.276 72.2644 102.212 72.2836 102.195Z" fill="#F5D999"/>
</g>
</g>
</g>
</svg>
